<svg xmlns="http://www.w3.org/2000/svg" viewBox="0 0 88 42.3"><path d="M9.9 31.3c-.7 1.4-2.1 2.4-2.8 3.8l2-1.6c6-5.4 12.5-10.3 18.8-15.5l1-1c.4-.3.7-.7 1-.3s.1.9-.3 1.2a8 8 0 00-2.5 3 20.5 20.5 0 003.4-2.5c.6-.5 1.1-1.2 2-.4.5.4 1-.2 1.6-.5a25.9 25.9 0 002.3-2.6c.2-.3.5-.8.9-.4s0 .7-.3 1a4 4 0 00-1.5 1.9c-.1.5 0 .8.6.5a8.3 8.3 0 001.5-.7c1.2-.8 2.5-.6 3.9-.6.2 0 .5 0 .5.4s-.3.3-.5.4a17.4 17.4 0 00-5.7 1.7h-.5c-1.2-1.4-2.6.7-4-.1l-.7.5a24.7 24.7 0 01-4 2.8c-.4.2-.8.4-1.2.1s-.1-.8 0-1.4l-5.5 4.4a231 231 0 00-18 15.7c-.5.5-1 1.5-1.7 1-.7-.9.5-1.3 1-1.8l7.4-8.1c.3-.4.6-1 1.3-.9zM88 4.8c-3 .8-5.7 2.5-8.8 2a2.8 2.8 0 00-2.4.7c-1.2 1-2.4 2-4 .6-.3-.3-.5 0-.8.2a17.4 17.4 0 01-3.2 1.9c-.5.2-1 .4-1.4 0-.7-1-1.3-.4-1.9.2l-1.4 1c-.1.2-.3.2-.4.1a.3.3 0 010-.5 11.8 11.8 0 011-.9A11.2 11.2 0 0068 6.5c1.5-2.6 3.8-4.3 6-6.2.3-.3.7-.4 1-.1s0 .6-.2.9c-1.9 2-3.7 4.2-5.8 6l-.8 1c-.2.3-.7.6-.4 1s.8.3 1.1.2a11.8 11.8 0 003.2-1.9l2.3-1.8c.1-.1.4-.4.6-.2s.2.5 0 .8a1.4 1.4 0 01-.2.3c-.3.3-1 .5-.6 1s1 0 1.4-.2a5.7 5.7 0 001-.8 2.8 2.8 0 012.9-.9 7.3 7.3 0 003.9-.1 13.1 13.1 0 014.6-.7zM72.8 2.4c-1.7 1-3.5 3-3.8 4a26.8 26.8 0 003.8-4z"/><path d="M43.2 17.4l2-2.3A98.2 98.2 0 0154 6.4a9.4 9.4 0 011.4-1c.3-.1.6-.1.8.3a.6.6 0 01-.4.8c-2.1.3-3.4 2-4.7 3.4-3 3.1-6 6.4-8.9 9.7L40.9 21c-.2.1-.4.3-.6.2a.5.5 0 01-.1-.8l.7-1A65.4 65.4 0 0048 4.7a.5.5 0 000-.1c.2-.4.2-1.2.9-.9s.3.9 0 1.3l-2.8 5.9-3.1 6.3zM61.7 11.5a1.3 1.3 0 01-1.8-.2c-.8-.7-1.2-.5-1.7.2l-2.6 2.8c-.4.4-1 .9-1.2-.3a1 1 0 00-1.3-.6c-1.6.3-3.3.5-4.1 2.3a.6.6 0 01-1 .3c-.4-.2 0-.6 0-.9.9-1.4 4.3-3 5.8-2.7.3 0 .6.2.7.3.6 1.4 1.1.5 1.6 0l1.5-1.5a5.7 5.7 0 001.6-3c.7-2.6 2.8-4.4 5.2-6h.9c.2.2 0 .8-.2 1a62.3 62.3 0 01-3.8 4.9c-1.9 2-1.9 2 .4 3.4zM64 3.4c-1.8 1.2-3.5 2.5-4 4.9a15.9 15.9 0 004-5zM27.5 13c-.2-.7.3-1 .6-1.3L33 6.3l-.2-.3-1.3.7c-3 1.7-6 3.7-9.2 5a5.8 5.8 0 01-2.7.3 1.3 1.3 0 01-1.2-1.7 7 7 0 012.1-2.9c.2-.2.5-.2.7 0s-.1.5-.3.6a4.4 4.4 0 00-1.4 1.7c-.2.4-.5.8-.1 1.2a1.2 1.2 0 001.3.4 11.3 11.3 0 002.2-.8 116.7 116.7 0 0010.5-5.8c.5-.3 1.1-1 1.6-.6s-.3 1.2-.8 1.7l-6.7 7.1zM20 20.8l-5 4.4a50.7 50.7 0 014.7-4.7zM10 31.4a.6.6 0 010-.8 30.3 30.3 0 013-3 15.9 15.9 0 01-3 3.7z"/><path d="M27.5 13c-.8.7-1.4 1.7-2.5 2.1.7-.9 1-2 2.5-2.2zM22.9 17.4a3.3 3.3 0 012-1.9 6.5 6.5 0 01-2 1.9z"/></svg>