<svg xmlns="http://www.w3.org/2000/svg" id="Livello_1" x="0" y="0" version="1.1" viewBox="0 0 340 340" xml:space="preserve"><style id="style2" type="text/css">.st0{fill:none;stroke:#000;stroke-width:2;stroke-linecap:round;stroke-linejoin:round;stroke-miterlimit:10}.st1{fill:#c0965f}</style><g id="g12"><g id="g10"><path id="path4" d="M119 212a80.5 80.5 0 0018.6 5.2c-1.9-2.2-3.8-2-5.6-2.2-7.1-.9-10.1-8.4-5.7-14 .3-.4 1-.8 1.6-.9 6.5-.9 13.3 7.2 11.2 13.4-.8 2.2.5 2.9 1.8 3.3a78.7 78.7 0 0121.7 9.8c2.6 1.9 3.4-.6 3.6-2.8.8-7.1-4.9-12.2-11.9-10.9-4.5.8-13.7-6.9-13.6-11.3 0-1.5 1.1-1.4 2-1.5h8.1c-2.6-2.8-5.8-3-8.6-4-6.3-2.3-12.6-4.4-16.4-10.6-3-4.7-4.5-9.7-3.4-15.2.3-1.5.4-2.9-.2-4.4-3-7.2-15.3-14.2-23-13-.7.1-1.3.3-2 .3-1.7.1-3.7 1.1-4.9-1-.7-1.2.4-2 4.1-3-2.6-2-4.5-.3-6.4.6-7 3.5-9.5 3.1-15.3-1.9-2.3-2-2.5-3.2.4-4.5 5-2.2 9.9-2.9 14.6.7 3.4 2.6 7.3 3.8 11.5 3.6 2.1 2.8 5.3 2.8 8.1 3.9-2.1-2.7-5-3.5-8.2-3.8l-.3-.4a9.4 9.4 0 01-3.1-10.8c.7-2.2 3-.9 4.4-.6 5.2 1.2 8.2 4.6 8.1 9.2-.1 3.9 1.7 6.6 4.2 9.2l3.5 3.5c6.1 6.5 6.2 6.5 8.7-2.2 1.1-3.8 2.4-7.6 2.5-11.7.1-5-1.3-6.3-6.2-5.4-5.1 1-8.6-1.3-11.8-4.8-2-2.3-1-3 1.5-3.3 6.2-.6 11.5 1.1 15.7 6.2.6-6.4-4.5-10.2-11.3-8.9-6.1 1.2-10.3-.8-12.8-5.8-1.3-2.6-.4-3.7 2.1-4 4.2-.5 7.8.6 10.7 4 1.4 1.6 2.6 4.6 5.4 1 1.3-1.6 3.4.9 6 1.4-1.7-2.8-4.5-3-5.5-5.3-1.1-2.8 3.2-11.5 6.2-12.2h.9c3.1 1 5.6 11.5 3 13.7-3.1 2.6-3.4 5.4-2.2 8.9a35 35 0 01.4 19.8c4.7-3.9 9.6-7.3 8.3-14.8-.8-4.7 2.9-9.2 7.5-10.5 2.1-.6 2.6.4 3 2.1a9.6 9.6 0 01-5.1 11.3c-1.2.6-3.1.5-3.2 3.3l11.8-6.5c.5-.3 1.2-1 1.2-1.5.2-6.8 5.6-6.5 10-7.2 1.3-.2 3.2-1.3 4 .6.6 1.5-.6 2.9-1.4 4.1-4.3 6.2-4.3 6.2.3 11.9l1.6 2.5c-5.7 3.2-11.1 2.3-14.1-2.9-2-3.4-4.7-4-7.5-2.2-11.7 7.3-21.8 15.9-23.9 30.7a19.5 19.5 0 0017.7 22.4c2.9.3 4.4-.9 5.3-3.4 1.9-5.3-2.4-11.5-8.5-12.1-6.5-.6-10.5-8-7.7-14 1-2.1 2.3-1.5 3.6-.9 4.2 1.9 7 4.9 7.7 9.7.3 1.8-.2 4.1 2.8 5.4 0-2.4-.2-4.4.1-6.5.2-1.6 1.5-2.1 3-1.8 1 .2 2.1 1.3 1.4 2.2-3.8 4.4-1 8.9-.4 13.3l.2 4c2.4-1.6 1.8-3.3 1.3-5.2-1.3-5.2 4-12.2 9.3-12.6 1-.1 1.8-.1 2.2 1.2 1.4 4.3-.8 10.4-4.8 12.7-5.3 3.1-6.3 4-10.1 9.9 8 3.8 15.7 8.2 19 18.1 1.3-5 1.3-5-1.2-7.5-4.3-4.1-4.3-8.1-.6-12.7 1.4-1.7 2.5-1.8 4.1-.5 4 3.3 5.7 9.8 2.7 13.2-2.6 2.9-2.1 6.1-2.1 9.4v8.6c1.8-.1 1.6-1.5 1.9-2.5a53.3 53.3 0 0111.2-17.6c3-3.3 2.2-5.1-1.5-6.6l-.9-.4c-12.4-5.1-14.7-8.6-13.6-21.9.9-10.3-4.5-16.3-14.9-16.7-3.7-.1-7.3-.2-10.8-1.7-1.2-.5-2.2-1.3-1.5-2.6.6-1.1 1.8-.7 2.6-.2 3.6 2.2 7.6 2.2 11.5 2.8 5 .8 9.6 2.8 12.7 7.2 1.6 2.2 2.6 2 3.6-.5 1-2.8 2.1-5.6 1.3-8.7-.6-2.4-2.9-5.5 2.4-5.3 1 0 .7-.9.6-1.5-.9-3.5 1.2-5.8 3.4-7.8 1.4-1.3 2.1-4.7 4.8-2.9 2.3 1.5 3.3 4.1 2.8 7a8.9 8.9 0 01-3.8 5.7 27.4 27.4 0 00-7.8 11.3c3.3-2.6 7-4.1 11-5.1 3.6-.9 4.2.8 3.6 3.6-1.2 5.2-5 7.7-9.9 8.7-9.6 1.9-11.2 4.2-9.4 14.3.8 0 1.3-.3 1.4-1.1.8-6.7 5.4-10.8 12.2-11 2.7-.1 3.1 1 2.8 3.2-.5 4.7-4.3 8.5-9.7 9.2-2.5.3-4.8.5-5.1 3.5-.3 2.7 1.2 4.2 3.4 5.6 4.4 2.7 9.8 3.4 13.6 7.1 1.2 1.1 2-.6 2.8-1.3 7.8-6.5 10.1-15.6 6.4-25.7-1.4-3.7-3-7.4-4.6-11.1a23.7 23.7 0 01-.4-19c1.4-3.4.4-5.6-2.6-7.5-5.3-3.3-6.3-6.3-4.8-12.1.7-2.9 1.7-2.6 3.7-1.1 3.4 2.5 5.7 5.5 5.5 10-.1 1.4-.6 3 1 4.3 2.8-2 4.1-5.1 5.4-8 .9-2.1-.6-3.2-2.4-4.2a8.6 8.6 0 01-2.7-13.7c1.2-1.4 2-.5 3 0 4.6 2.4 5.2 6.5 4.6 11.1-.2 1.5-1.8 4.1 1.3 4.3 2.3.1 4.5 5.6 7.1-.1 1.4-3 11.1-3.2 14-1 .9.7.8 1.2.3 2-1.9 3.3-8.9 6.2-12.8 5.2-7.3-1.9-11.4 0-15.4 7.4 4.5 0 6.1-5 10.4-5 4 0 7.5.9 10.9 2.7-5 6.1-9.2 7.3-16 4.6-4.7-1.9-7.7-.4-9.2 4.4-.4 1.4-.6 2.9-.7 4.4-.2 2.9-.4 6.4 1.7 8 2.2 1.7 4-2 6.2-2.7l2.3-.6-.1-.1-2.1 2.8c3 .3 5.3.1 7.8-1.3 5.1-2.9 13.7.2 16 5.3.5 1.1.4 2-1 2.1-3.8.4-7.5 1.6-11.4 1a5.9 5.9 0 01-4.4-2.9c-2.2-4-5.4-3.2-8.6-1.7-3.5 1.7-2.1 4.4-1.1 6.9 5.5 12.7 2.8 23.7-6.9 33.3-2.3 2.3-5 4.3-6.9 7.9a86.8 86.8 0 0019.8-7.7c3.6-1.9 3.4-6.1.1-8.7-3-2.3-2.4-5.2-1.4-8.2 1-3.1 2.4-5.9 5.8-7 1.3-.4 1.7.6 2.2 1.5a13 13 0 011.8 7.7c-.2 1.7-1.2 3.2 2 3.5 2.6.2 1.8 2.8 1 4.4-.7 1.5-1.8 2.8-2.9 4-1.1 1.2-2.4 2.2-4.5 4.1 5.5-.1 10 .3 13.9 3.1 2.3 1.7 2.4 2.8-.1 4.2-5 2.8-10.5 3.7-15.1.4-4.2-3-8.4-2.9-12.7-2.4-11 1.2-19.3 9.2-19.6 18.6 0 1-.4 2.2.6 2.7.5.2 1.6-.2 2.2-.7 10.3-8.5 22.9-9.2 35.3-10.7 5.2-.6 10.2-1.7 14.5-4.8 4.8-3.5 5.5-7 2.7-12.1-.3-.6-.6-1.3-1.1-1.7-8.7-7.1-6.2-14.7-1.1-22.4 2.3-3.5 3.7-7.1.7-11.1-.8-1.1-1.1-2.7.4-3.5 1.6-.8 2.8.2 3.7 1.6 1.2 1.9.3 3.9 0 5.8-.2 1.3-1 2.9.2 3.7s2.5-.5 3.6-1.1c2.2-1.2 4.4-2.5 6.4-3.9 5.4-3.9 4.9-8.6-1.1-11.4-6.3-2.9-8-8.6-4.4-14.8 1.2-2.1 2.5-2.3 4.4-1.4 4.5 2.3 6.6 5.9 6 11-.3 2.9-1.3 5.9.8 8.6 1.7-1.2 1.6-3.3 2.7-4.8.8-1.1 1.8-2.2 3.3-1.2 1.2.8 1 2.1.4 3.1l-4.2 6.7c2.1.1 2.9-1.1 3.6-2.4 2.6-4.7 11.2-7.6 16-5.5 1.6.7 1.2 1.7.9 2.8-1.1 4.9-6.8 9.1-11.4 7.3-5.5-2.2-9.7 0-14.1 2.3a34.6 34.6 0 00-8.2 5.9c8.7-4.1 17.3-5.7 26-.9-4.6 7.5-11.3 9.1-18.7 4.3-4.7-3.1-11.5-1.9-16.3 2.8-4.2 4.2-4.5 8.4-.5 13.8 2.8 3.9 6.6 7.1 5.5 12.8-.4 1.9 1.6 1.3 2.5 1a36.7 36.7 0 0017.2-11.5 6.9 6.9 0 001.3-5.2c-.1-1.8-.5-4 2.2-4.1 2.8-.1 2.5 2 2.4 3.9l.2 2.1c3.5-6 8.5-8.3 14.7-8.5 4-.1 4.7 1.6 3.3 4.9a8.6 8.6 0 01-7.5 5.7 57.5 57.5 0 00-28.4 13.1c8.2-6.1 16.6-7.1 24.9-.9a18.4 18.4 0 01-21.9 3.9c-3.5-1.8-7.2-.3-10.7.6-7.2 1.9-13.4 6.6-22 7.6 5 3.1 9.2 2.3 13.4 1.2 5.6-1.5 10.5-.6 14.8 3.3 1 .9 2.5 1.4 2.1 3-.3 1.6-2 1.6-3.2 2a16.7 16.7 0 01-14.9-1.3c-1.5-.9-2.6-2.6-5.2-2.5 2.8 3.1 6.1 5.2 8 8.4.8 1.4 2.1 2.7 1.5 4.6-.3 1-1.3.9-2.1.9-2.4-.2-2.1-2.3-2.6-3.7a16.4 16.4 0 00-9.5-10.3c-.4 2.3.6 3.6 2.2 4.2 5.4 1.8 5.2 6 4.5 10.2-.5 2.7.5 7.1-1.9 7.8-2.8.9-4.5-3.1-6.5-5.2-5.4-5.4-5.4-6.5-.9-12.6 1-1.4.6-2.5 0-3.7-1.7-3.3-4.5-5.1-8-5a38.3 38.3 0 00-26.9 10.1c-3.3 3.1-4.7 11.8-3 15.9.8 1.8 2.3 1.8 3.7 1.9 28.1 1.3 52.9 12 76.9 25.6 21.2 12 41.8 24.8 61.1 39.5 7.4 5.7 13.5 12.8 19.1 19.4-23.8-13.1-45.4-30.9-69.9-44.3l7.2 5.7-.4.6-16.3-9.2c-7.7-4.3-15.1-9.4-23.6-11.7-9.3-2.5-18-6.1-27-9.1a103.2 103.2 0 00-42.2-5.2 155.9 155.9 0 00-44.7 12c-8.3 3.3-16.4 7.2-24.7 10.6-10.4 4.3-19.6 10.7-29.2 16.3-11.8 6.9-23.9 13.1-34 22.5-.5.5-1.8 3.5-2.9-.1-.5-1.5-1.9.3-2.6.8-4.7 3.7-9.2 7.6-14.5 11.9.1-2.4 1.3-3.4 2.3-4.3A337.8 337.8 0 0198.7 266a225.4 225.4 0 0163.6-19.3c1.1-.1 2.3.2 2.8-1.4 1.5-4.7-1.2-14.6-5.2-17.7-7.2-5.9-13.1-6.9-19.1-3.1-3.2 2-5.6 4.5-5.2 8.9.5 5.1-3.6 7.1-7.2 9.1l-6.6 3.3v-7.4c-.1-3.9 1.8-6.2 5.6-7.1 2.3-.5 4.9-.8 6.5-4.4a40.1 40.1 0 01-20.7 1.9c-2-.3-3.9.7-5.7 1.7-8 4.3-16.7 2.1-22.5-5.5 6.4-3.2 13-3.7 20-1.3.9-1.3-1.6-3.2.6-4.2 2-.8 3.5.2 5 1.4 1.8 1.5 3.4 3.3 5.4 4.3 4.3 2.3 8.7 2.9 13.5 1 4.5-1.8 9.1-3.2 14.8-5.2-5-1.3-9-2.2-12.8-3.4-4.5-1.4-9.3-2.2-12.6-6.1l.1.5zm126.3-38.6c4.5 3.7 8.1 3.6 11.8-.4-4-2.2-7.9-2.8-11.8.4zm-154 53.4c4.5 3.4 8.5 4 13.3.8-4.4-2.5-8.3-3.3-13.3-.8zm70.3 29.4c-9.1-.2-18.1-.5-26.5 3.9 8.9-1.3 17.7-3.1 26.5-3.9zm-26.5-46.6c-.2-2.8-1.7-5-4.5-5.7-1.5-.4-2.5.9-2.4 2.4.2 3.1 2.5 4.5 5.1 5.3 1.8.7 1.6-.8 1.8-2zm104.7-66.4c-1.9.8-2.1 2.5-2 4.1.1 2.5 1.9 4 4.1 4.4 1.8.4 2.2-1.4 1.9-2.7-.7-2.3-1.2-4.8-4-5.8zm-24.9 96.9c1.8-.5 2.1-2 2.1-3.5 0-2.6-1.2-4.6-3.9-5-1.5-.2-2.4 1.2-2.3 2.6a7 7 0 004.1 5.9zM155 207.6c-1-2.7-3.3-3.9-5.9-4.5-.9-.2-2.3-.3-2 1.2.6 3 3.1 4 5.7 4.6 1 .2 2.1.2 2.2-1.3zm97.9 1.6c1.9-.3 4.7-.1 4.8-2.3.1-2-2.6-2-4.4-1.9-2 .1-4.7.3-4.8 2.4-.1 2 2.6 1.5 4.4 1.8zm-28.3 13.7c2.9 2.5 5.5 3.3 8.4 3 .9-.1 1.7-.4 1.9-1.3.2-1-.5-1.5-1.2-1.9-2.8-1.5-5.5-1.5-9.1.2zM132 236.3c-.1-1.4-1.2-1.8-2.4-1.7-2.7.2-4.3 1.6-4.5 4.3-.1 1.3.6 2.4 2.1 2 2.2-.7 4.2-1.9 4.8-4.6zm-25.7-92.9c-.3-2.6-2.1-3.6-4.3-4.2-1.5-.4-2.1.8-2 2.1.2 2.4 2 3.3 4 3.8 1.3.3 2.3-.1 2.3-1.7zm156.9 13.5c-2.5.3-5.2.5-6 3.3-.4 1.4 1.4 1.7 2.5 1.4 2.3-.6 5.3-.6 6.1-3.4.4-1.6-1.6-1-2.6-1.3zm-127.5 9.9c-1.9-.1-1.8 1.3-1.8 2.4 0 2.3.9 4.2 3.3 4.7 1.5.3 1.9-1.1 1.7-2.3-.2-2.1-1.1-4-3.2-4.8zm18.8 15.9a8 8 0 004.2-5.3c.3-1 .2-2.4-1.2-2.1-2.3.4-3.7 2.2-4.2 4.4-.3 1.2 0 2.3 1.2 3zm-67.4-35.8c-2.9-2.2-5.6-3.1-8.6-1.6-.6.3-.5 1.2 0 1.7 2.6 2.2 5.3 2.7 8.6-.1zm121.7 37c-.3-1.3-.3-3.1-2-2.9-1.9.2-2.3 2.2-2.5 3.8-.2 1.3.2 3.1 1.7 3.1 2.2-.1 2.1-2.5 2.8-4zm-11.7-70.5c-1.4.1-1.7 1.4-1.8 2.4-.2 2 .8 3.6 2.7 4.1 1.5.4 1.9-1 1.8-2.2-.2-1.7-.7-3.5-2.7-4.3zm-27.3 86.7c-.4-1.6-.5-3.7-2.5-3.9-1.9-.2-2.2 1.7-2.3 3.2-.1 1.9.9 3.3 2.8 3.5 1.9.2 1.7-1.6 2-2.8zm-39-84.8c-.4-1.3-.1-3.4-2.1-3.2-1.9.2-2.2 2.2-2.2 3.8 0 1.3.1 3 1.7 3 2.3 0 2.3-2 2.6-3.6zm141.1 72.5c-.3-1.5-1.4-1.2-2.3-1.1-2.3.4-4.5 1.2-4.9 3.9-.1 1.1 1.1.9 1.9.7 2.2-.4 4.4-1 5.3-3.5zm-88.3-28.7c-3.4-.3-5.4 1.3-7 3.5-.3.5.2 1.4 1 1.3 2.9-.3 5.3-1.2 6-4.8zm28.4-22.8c-2.5-.8-5.1-1.5-7.7.4-.5.4-.3 1.3.5 1.6 2.6 1 5.1 1.3 7.2-1.1v-.9zm5.5 69.8c-2.3-2.4-5-2.7-7.9-1.7-.8.3-.7 1.1-.2 1.6 2.2 2.1 4.7 1.8 7.3 1l.8-.9zm-102.4-81.5c-1.2-2-3-3.3-5.3-3.7-.8-.1-2 .1-1.6 1.1a6 6 0 005.2 3.9c.8.1 1.6-.1 1.7-1.3zm32.4 5.4c-.5-.4-.1-2-1.7-1.5-1.9.6-3.1 2-3.1 4.1 0 .9 0 2.4 1.4 2.1 2.2-.4 2.9-2.3 3.4-4.7zm33.9 12.6c-.3-.7-.1-2.2-1.5-1.9-2 .5-2.7 2.2-2.9 4.1-.1 1 .4 2.3 1.5 2 1.8-.6 2.7-2.2 2.9-4.2zm37.8 17.2c-3.2-1.7-5.6-3-8.6-.7 2.6 1.9 4.9 2.6 8.6.7zM114.3 133c1.8 3.5 4.2 4.1 7.7 2.8-2-2.8-4.3-3.5-7.7-2.8zm59.8 45c3.6.6 5.3-1.2 6.8-4.1-3.6-.4-5.6.9-6.8 4.1zm45.9-52.6c-2.7-1.1-4.9-1.3-6.7.8-.2.2 0 1.1.2 1.2 2.5 1.2 4.4.4 6.5-2zm-55 3.5a2 2 0 00-2-.6c-1.5.5-3.6.4-3.7 2.5-.1 1.4 1.4 1.1 2.3.8 1.4-.3 2.9-.6 3.4-2.7zm25.2 1.5c.2-2.3-.1-4.3-2.3-5.4-.6-.3-1.5-.1-1.5.6 0 2.3.8 4.1 3.8 4.8zm-24.3 13.5c-2.3-2.8-4.3-3.6-7.1-2.5 1.3 3.2 3.7 2.9 7.1 2.5zm-58.5 81.3c3.1 1.6 5.1 2.8 8.7 2.3-3.1-1-5-2.5-8.7-2.3zm52.8-18.3c-.6 2.8.8 3.8 2.7 5.2-.2-2.4-1.1-3.6-2.7-5.2zm87.6 71.5c-1-1.6-2.2-2-4-1.9 1.1 1.5 2 2.4 4 1.9zm-69.1-22c-1.6-.3-2.9-.5-4.6.4 1.7-.1 3.1.5 4.6-.4zm-6.8-92.2c-.2-.5-.5-.6-.6-.2-.4 1-1.6 1.8-.8 3.1a4 4 0 001.4-2.9z"/><path id="path6" d="M119.1 211.9c-4.8-1.1-7.8-4.8-10.9-8.1a13.9 13.9 0 00-18.4-1.1c-7.5 6.3-16 6-23.3-.9 8-8.3 17.3-6.2 26.9-2.9-4.2-2.2-8.6-3.7-12.4-6.1-1.3-.9-3.1-1.5-2.8-3.7.1-.7.6-1.2 1.3-1.3 2-.5 3 .6 4.1 2 5.1 6.8 12.6 7.7 21.4 8.5-2.9-5.9-4.9-11.2-7.8-15.9-2.2-3.6-6.3-4.1-10.3-3.1-2.4.6-4.8 1.4-7.1 2.2-5.2 2-8.5-1.5-11.9-4.3-1.9-1.6.4-2.3 1.3-2.8 5.9-3.2 12-3.9 17.9 0 1.6 1.1 3.1 2.6 5.3 2.6-2.3-5-5.4-6.9-10.9-6.8-1.7 0-4.2 1-4.2-1.9 0-2.5 2.4-2.2 4.2-2.5 2.7-.4 4.9.8 8 2.7-2.3-4.2-3-7.7-1.3-11.4 1-2.1 2.2-2.6 4.3-1.8 5.3 1.9 7.9 7.1 5.8 12.4-.8 2.1-1.6 4.2-.8 6.3 3.7 9.6 6.5 19.5 12.5 28.1 2.4 3.4 4.1 2.6 6.1 0 2.6-3.5 2.9-7.4.9-11.3-2-4-4.4-7.8-6.5-11.8-.5-1-1.9-2.4-.2-3.5 1.4-.9 2.7.1 3.2 1.4 2.4 6.2 5.3 12.2 6.4 18.8.5 2.9-.6 5.8-2.8 7.7-3.4 3-2.6 5 .8 7.1.5.3.8 1 1.2 1.4-.1.1 0 0 0 0zm-34.6-10.4c-3.8-2.1-9.9-2.1-11-.1-.4.7-.1 1.1.4 1.6 2 1.9 7.6 1.4 10.4-1l.2-.5zm10.6-37.8c0-2.5-1.3-4.1-3.4-4.5-1.9-.3-1.9 1.5-1.8 2.8.1 2.2 1.4 3.8 3.6 4 1.6.2 1.5-1.3 1.6-2.3zm-12.6 12.8c-3.5-2.1-6.4-2.3-9.8.4 3.5 1.9 6.4 2.2 9.8-.4zm7.8-6.8l5 4.5c-.6-3.4-2.4-4.3-5-4.5z"/><path id="path8" d="M202 154c2.9-3.1 6.4-5.1 10.6-5.5 1.4-.1 3.4-.3 3.5 1.8.1 1.8-1.8 1.8-3 1.7-3.9-.3-7.4 1.2-11.1 2-.1-.1 0 0 0 0z"/></g></g><g id="g138"><g id="g136"><path id="path14" d="M29 7.3c7.5 6.2 8.1 20.6 1.2 29.3L27.1 40c7.4 1.3 8.6 6.8 8.7 12.5.3 15.2-3.4 28.4-18.6 35.7-2.5 1.2-4.6 3-7 4.6 3.6-26.3.8-52.4 1.2-78.4-.9-1.5-2.8-1.1-3.6-2.4L7 7.3h22zm-9.7 39.3v33.5c9.6-2.9 12.8-26.7 5-34.5-1.8-.5-3.3.1-5 1zm.1-32.8v25.6c6.8-1.7 9.6-9.5 7.6-20.6-.8-3.9-2.5-6.6-7.6-5z"/><path id="path16" d="M119 7.3c.5 3.1-2.9 2.1-4.5 4.8v40.3c-2 1.3-3.5.9-5.1 1-8.6-9.6-14.1-21.2-21.1-33.3v34.6c.4 1.4 2.9-.3 3.7 2.3-3.3 2.4-7.6 2.3-11.3 3.9-1.9-3.6 2-3.2 3.3-5.5 1.1-14 1-28.7.9-43.3-1.7-1.7-4.7-1.7-4.8-4.7h11c6.5 10.6 12 21.9 19.9 33.1V11c-1.5-1.1-4.5-.5-3.9-3.6l11.9-.1z"/><path id="path18" d="M72 7.3l-1.1 13.1c-2.7-2.8-1.3-5.2-2.3-7.2-3.3-2-6.9-.8-11.1-.9v21.5c2.7-.3 5.5-.1 7.6-1.5 1.9-2.1-.2-5.1 3.1-7 .6 6.8.1 13.1-.4 20.8-2.3-3.1-1.1-5.4-2.4-7.6-2.6-.9-5.2-.2-8.2 1-.4 7.5-1.1 15 .1 23.1 4-.3 7.6-1.7 11.1-3.3 1.8-2.8.9-6.3 2.9-9 1.2 4.1.9 8.4.7 12.9-8.1 3.4-16.8 5.1-24.9 9.5C52.5 54.5 49 36.6 50 18.9c.1-2-.2-4-.3-5.9-1.9-1.6-4.8-2.5-3.5-5.7H72z"/><path id="path20" d="M312 7.3l-.9 17c-3.1-2.8-1.2-6.4-2.9-9.5-2.2-1.4-4.8-1.4-7.9-1.5v55.1c1.5 2.9 5.8 3.5 3.5 7.8-4.9-3.4-11.3-4.1-15.8-7.8 1-3.2 3.2-1.4 4.5-3.6 1.2-16.5-.2-33.8.1-50.9-3-1.9-5.7-1-8.5-.4-1.7 2.3-.2 5.3-2.2 9.1-2.1-5.7-.6-10.7-1.7-15.3H312z"/><path id="path22" d="M335 7.3v4.4c-.6 1.7-2.9 1-4.2 2.5v16.9c0 16 .2 31.9.1 47.9 0 4.2.2 8 4.2 10.4l-.3 5.8c-4.8-5.9-12.8-6.6-15.5-12.7.8-3 2.9-1.3 4-3.4.8-14.1.4-29.1.3-44l-.2-17.5c0-2.8-.2-5.5-4-5.7l-.5-4.7 16.1.1z"/><path id="path24" d="M189 7.3c9.5 3.9 12.7 11.2 10.4 23.4-2 10.1-7.3 14.7-17.6 14.8h-16.3c1.3-11.9.3-23.5.6-34-1.2-2.7-4.6-1.2-4.2-4.2H189zm-15 3.3c-.7 10.5-.6 21-.2 31.4 11.9 2.3 17.5-1.8 18.3-13.1.1-1.8.2-3.7.1-5.5-.7-11.1-6.9-15.6-18.2-12.8z"/><path id="path26" d="M274 7.3c-.4 4.3.2 8.8-1.3 13.5-2.8-2.3-.6-5.6-2.7-7.9-2.2-1.1-4.8-.8-7.6-.7v44.2c1.1 2.1 5.4 1.5 4 5.6-5.2-2-11-2.3-16-5.2.9-2.3 2.9-1 4.4-3.4-.1-13 .4-27.2-.6-41.6-3.1-.4-5.9-.8-8.7.7l-1.1 6.7c-2.8-4.2-1.2-8.4-2.5-11.9H274z"/><path id="path28" d="M235 7.3l-1.3 9.3c-2.9-.7-1.1-3.3-2.9-5.1-2.8-1.5-6.6-1.1-10.5-.9-.7 5.1-.4 9.9-.3 14.6 2.8 1.5 5.5 1.2 8 1 1.8-1.4.2-4 3.1-5.2v16.3c-3.1-1-1.1-3.9-3.4-6.4-1.4-1.1-4.4-.8-7.4-.7v16.6c4.1 1.2 7.9 2.3 11.6 2.3 2-1.7.2-4.5 3.1-6.7.9 3.9.7 7.2 0 11.3-8.4-1.3-16.3-4.2-25.1-5.1 1-2.4 3.2-3.3 3.1-5.8-.3-10.6.1-21.3-.7-31.4-.9-2.4-4.4-1.3-4.2-4.2l26.9.1z"/><path id="path30" d="M153 7.3c.1 2.6.3 5.2-.9 7.7-2.3-.8-1.1-3.3-3.5-4.5-2.5-.6-6-.2-9.6-.1-1.4 4.5-.7 9-1 13.7 3 .7 5.7.4 8 0 2-1.3.6-4 3.5-4.8v14c-2.9-.8-1.5-3.4-3-4.8-2.2-.7-4.9-.2-8-.1-.9 5.2-.5 10.2-.1 15.7 4.1.4 7.9-.5 11.4-1.1 2-1.6.5-4.6 3.2-5.9 1.6 3 .2 5.8.1 8.9-8.3 1-16.6 1.6-24.7 3.3-.6-2.4 2.1-2.7 2.4-4.3V11.3c-.6-2.2-4.3-1-3.8-4h26z"/><path id="path32" d="M139.1 93.8a14 14 0 008.6 1.8c-5.3 6.1-10.6-1.3-15.3 1-1.1-1.6 1.4-1.4.5-2.8-6.3-3-8.3-6.6-6.9-13 .9-4.4 4.6-6.9 10.2-7s9.2 2.2 10.4 6.6c1.5 5.4-1 10.1-7.5 13.4zM130 83.2c-.1 5.1 2.4 8.4 6.3 8.5 3.9.1 6.1-2.8 6.1-7.9s-2.6-8.4-6.5-8.3c-3.5.1-5.8 3.1-5.9 7.7z"/><path id="path34" d="M234.6 83.7c-2.9 3.2-.9 6.1.4 9.3h-7.1c2-6.2 1.9-12.4-.1-18.8h8.2c2.7 0 5.6-.5 6.7 2.8 1.2 3.2-1.2 4.9-3.4 6.6 1.8 3.3 4 6.3 6.8 9.5h-5.9l-5.7-9.5c1.1-1.2 3.2-1.1 4.2-3.4.5-3.2-.9-4.5-4.9-3.8-.2 2.7-1 5.1.8 7.3z"/><path id="path36" d="M203.5 73.9c6.6 0 10.4 3.3 10.5 9.2.1 6.5-4.3 10.7-11 10.6-6.5-.1-10-3.5-10.1-9.6-.1-6.5 3.7-10.2 10.6-10.2zm6 9.9c0-5.4-2.5-8.5-6.5-8.3-3.7.2-5.9 3.1-5.9 7.8 0 5.1 2.5 8.6 6.3 8.7 3.8.1 6.1-3.1 6.1-8.2z"/><path id="path38" d="M173.8 74.4h6.1c-3 3.4-1.8 7.2-1.9 10.8-.3 7.4-6.8 11.1-13.3 7.4-2.4-1.3-2.8-3.4-2.8-5.9l-.3-9.9c0-.7-.9-1.3-1.5-2.1 2.6-.7 5-.4 7.5-.2-2.5 4.3-1.8 8.9-1.4 13.3.2 2.2 2.2 3.2 4.3 3.4 2 .1 3.6-.6 4.6-2.3 1.7-2.8 1-11.6-1.3-14.5z"/><path id="path40" d="M82 91.1c3.9.5 6.7.9 8-2.9 1.2 1.9.5 3.3-.1 5H77.2c.7-6.3 2-12.5-.8-18.7h7.4c-3 5.4-1.4 11-1.8 16.6z"/><path id="path42" d="M104.8 74.4h6.6c-2 6.3-2.1 12.5.2 18.8h-7.1c2.3-6.3 2.1-12.5.3-18.8z"/><path id="path44" d="M266.2 93.2h-7.1c2.7-6.2 2.2-12.4.3-18.7h6.7c-2 6.2-2 12.3.1 18.7z"/><path id="path46" d="M171.5 42.3c7.3 2.9 14.2 2.6 20.5-2.5" class="st0"/><path id="path48" d="M190 10.8c-6.1-2.4-12.2-3.8-18.5-.5" class="st0"/><path id="path50" d="M203.5 93.3c6.8-2.3 7.9-3.9 8-10 .1-4.3-1.4-7.2-6-8-4.6-.9-8.6.5-9.9 4.6-1.3 3.9-1.4 7.9 2.4 11 1.5 1.3 3.5 1.3 5 2.4" class="st0"/><path id="path52" d="M29.8 71.3c-2.7 8.8-6.6 12.3-13.3 12" class="st0"/><path id="path54" d="M136 45.5c2.7.1 5.5.8 7.9.1 2.5-.8 5.2-.3 7.6-1.3 1.5-1.6.8-3.6 1-5.5" class="st0"/><path id="path56" d="M13.5 87.3c-.9 2-3 3.2-3.5 5.5" class="st0"/><path id="path58" d="M88 17.8c-.5.8-1.5 1.7-1.4 2.5.6 12-1.5 24-.1 36" class="st0"/><path id="path60" d="M113 10.3l-.5 28c0 1.7 0 3.3-1.5 4.5" class="st0"/><path id="path62" d="M71 50.8l-.9 10.7c-5.7 1.4-10.3 4.8-16.4 3.7-2.5 1.7-3.9 5-7.2 6.1" class="st0"/><path id="path64" d="M234.5 42.8c-.2 2.7.5 5.4-.7 8.6-5.6-1.2-11.6-1.2-16.8-4.6" class="st0"/><path id="path66" d="M310 23.8c.6-4.1 1.3-8.2-1-12" class="st0"/><path id="path68" d="M282.5 11.3c-2.3 3.1-.3 6.3-.5 9.5" class="st0"/><path id="path70" d="M137.5 93.3c4.3-1.7 7-4.5 7-9.5 0-4.9-2.1-8.3-6.5-8.9-4.1-.6-8.1.3-9.4 4.9-1.2 3.9-1.4 7.9 2.4 11 1.4 1.2 3.3 1.2 4.6 2.4" class="st0"/><path id="path72" d="M272.5 18.8c-.1-3 .6-6.1-1.8-9.1-4.1.5-8.6-1-12.7 1.6-4.2-3.2-8.9-2-13.6-1.5-1.6 2.6 0 5.3-.5 8" class="st0"/><path id="path74" d="M67.5 25.8c.3 3.5 0 6.9-2.3 10.1-3.5-.9-7 1.2-10.7.9" class="st0"/><path id="path76" d="M177 76.3c-.6 5.2 1.6 10.9-2.2 15.4-8.6 1.9-10.8.1-10.8-8.4v-6.5" class="st0"/><path id="path78" d="M152 14.8c-.9-1.7-.3-3.7-.6-6.2-5.2 1-10.2-1.3-14.9 1.7" class="st0"/><path id="path80" d="M237 84.7l4.3-5.7c-1.7-4.6-4.9-4.8-8.8-2.8" class="st0"/><path id="path82" d="M70 18.8c-.1-2.9 1.8-6.1-1.5-9-4.6.7-10-1.5-15 1.5" class="st0"/><path id="path84" d="M233 16.8l-.5-7.4c-5 .4-10.1-2.6-15 .9" class="st0"/><path id="path86" d="M263 76.8c-.5 4.7 1.1 9.6-1 14.3" class="st0"/><path id="path88" d="M108 76.8v14" class="st0"/><path id="path90" d="M231.5 76.8c.2 4.7-1.2 9.3 0 14" class="st0"/><path id="path92" d="M80 76.8v14" class="st0"/><path id="path94" d="M90 88.8v2.7c-4.7 2.4-9.4-1.6-13.5 1.3" class="st0"/><path id="path96" d="M147 26.3h-11.5" class="st0"/><path id="path98" d="M230.5 35.8c-.2-2 .4-4.1-.6-6.3-3.8-2.3-8.2-.8-12.4-1.2" class="st0"/><path id="path100" d="M136.5 93.8c3.2 3.4 6.9 3.8 11 2" class="st0"/><path id="path102" d="M234 83.3c2.1 1.4 4.5 2.2 5.6 5 1 2.5 3.3 3.9 5.9 4.5" class="st0"/><path id="path104" d="M297 69.3c1.8 2.8 6.2 2.7 7 6.5" class="st0"/><path id="path106" d="M66 36.8c1.8 2.5.7 5.3 1 8" class="st0"/><path id="path108" d="M149 19.8c-1.3 4-.4 8-.5 12" class="st0"/><path id="path110" d="M133.5 10.3c-1.6-1.8-3.7-2.1-6-2" class="st0"/><path id="path112" d="M168.5 10.3c-1.6-1.8-3.7-2.1-6-2" class="st0"/><path id="path114" d="M323 10l-1.5-.3" class="st0"/><path id="path116" d="M214.5 10.3c-1.6-1.8-3.7-2.1-6-2" class="st0"/><path id="path118" d="M107.5 8.3c3.7 1.3 7.3.8 11 0" class="st0"/><path id="path120" d="M90.5 56.8c-3.3-.8-6 1.2-9 2" class="st0"/><path id="path122" d="M266.5 74.8c-2.7 2.4-5.3.5-8 0" class="st0"/><path id="path124" d="M112.5 74.8c-1.8-.3-2.9 1.2-4.5 1.5-1.6-.3-2.7-1.9-4.5-1.5" class="st0"/><path id="path126" d="M84.5 74.8c-1.8-.3-2.9 1.2-4.5 1.5-1.6-.3-2.7-1.9-4.5-1.5" class="st0"/><path id="path128" d="M112.5 92.8c-1.8.3-2.9-1.2-4.5-1.5-1.6.3-2.7 1.9-4.5 1.5" class="st0"/><path id="path130" d="M135.5 94.3l-4 2.5" class="st0"/><path id="path132" d="M168.5 74.8c-2.7.5-5.3 2.4-8 0" class="st0"/><path id="path134" d="M179.5 74.8c-2 1.9-4-.2-6 0" class="st0"/></g></g><g id="g152"><g id="g150"><path id="path140" fill="#c19861" fill-opacity="1" d="M155.5 286.3a12 12 0 00-9.6 4.8c-3.8 5.1-4.1 15-.6 19.8 2.9 4 7 4.9 13.5 2.9 2.7.3 1.6 2 1.3 3.3-1.1 9-3.5 11.6-12 12.9-1.1.2-2.2.2-2 1.6.1 1.3 1.3 1.2 2.3 1.4 6.9 1.1 13.8-3 17-10.4a40.4 40.4 0 002.3-25.4c-1.1-4.6-3.3-8.7-8.4-10.3-1.3-.4-2.6-.6-3.8-.6zm0 3c2.3 0 3.3 1.9 4 3.9.9 2.6.7 5.3.9 9-.1 1.2-.2 3.6-.7 5.8-.4 1.9-1.7 3.3-3.8 3.4-2.1.1-3.3-1.2-4-3.1a29 29 0 01-.5-15.2c.5-2 1.8-3.8 4.1-3.8z"/><path id="path142" d="M178.5 302.8c1.8-.1 3.6-.5 5.4-.4a13 13 0 0112.9 13.7c0 8.9-5.9 16.2-13.8 16.9-2.5.2-5-.1-7.4-.4-1-.1-1.9-.8-1.5-2.1.3-1.2 1.3-.6 2.1-.6 10.6-.2 15.8-7.9 11.7-17.8-1.7-4.2-4.8-7.1-9.6-6-3.1.7-3.3-.5-3.1-2.9.3-4.1.6-8.3.7-12.4.1-2.6 1.1-3.5 3.6-3.4H190c1.5 0 4-1.5 4.1 1.7.1 2.8-.1 5.5-3.7 6-1.8.2-3.7.1-5.5.2-7.2-.1-7.2-.1-6.4 7.5z" class="st1"/><path id="path144" d="M217.9 306.7c7.1 2.9 9 6.1 8.1 13.9a14.2 14.2 0 01-12 12.3c-3.3.4-6.6.6-9.9-.6-1.2-.4-3.1-.5-2.7-2.2.4-1.9 2.1-.8 3.3-.6 9.1 1.5 14.4-3.7 13.3-12.8-.5-3.8-2.3-6.5-6.2-7.5-1-.3-2.2-.3-2.2-1.5 0-1.3 1.2-1.2 2.2-1.5 4.2-1.5 5.9-7.2 3.6-12.1-1.8-3.8-4.7-4.4-9.5-1.9-.8.4-1.7 1.6-2.5.5-1-1.2.3-2.1 1.1-2.9 4.6-4.7 13-4.6 17 .1 4.4 4.9 2.9 11.8-3.6 16.8z" class="st1"/><path id="path146" fill="#c19861" d="M129.8 307.5v16.9c0 2.5.2 4.8 3.5 4.9 1 0 2.1.4 1.9 1.7-.2 1.3-1.5 1.1-2.4 1.1h-14c-.8 0-1.8.2-2.1-.8-.3-1.2.5-1.9 1.6-1.9 3.7-.1 3.7-2.7 3.7-5.3l.1-29.4c0-2.4-.3-4.8-3.6-4.8-.7 0-1.3-.5-1.2-1.3.1-1 .8-1.4 1.7-1.5 3-.2 6-.5 8.9-.5 2.2 0 1.8 1.9 1.8 3.4.2 5.9.1 11.7.1 17.5z"/></g></g></svg>