<svg xmlns="http://www.w3.org/2000/svg" viewBox="0 0 512 366"><defs/><path class="a" d="M511.3 263.4c-3.7-15.2-15.2-27.4-26-38.8-7.1-7.2-18.6-22.3-10.4-31.7 2 1.5.9 6 3.6 7 2.2 1 2.6 4.2 5.2 4.6 2.3.2 4.6 2.6 6.6 1.7 3.1-.5 5 6.6 12.6 8.4-4.7-9.6 1.6-9.6-1.5-20-3.1-3.8-5.3-8.3-8.7-11.9-2-2.4-5.5-2.7-7.6-4.9a11 11 0 00-5.8-2.7c-13.5-2.5-17.7 14.9-16.3 25.3-.5 22.2 52.5 56.5 32 73.5-20.4 5.2-35-14.4-49.7-24.3-8.7-6.7-20.2-8.2-28.4-15.4-1.4-1.8 1.4-3 1.7-4.8.6-1.6.7-2 2.1-2.6-.2-3.6-3.4-7-4.5-11.3-.5-3-3-5.3-3.8-8.3a2.6 2.6 0 00-1.7-1.7c-5.7-3-20.6-9.7-16.8-17.8.6-1.1 2-.6 3-.7a36.4 36.4 0 004.6-.7c1.2 1.3 3.6 1 4.2 2.7 1.4 4.2 5 7.2 8.7 9.1-1.2-3.3 1.5-3.1 3.3-5 1.3-1.5 2.1-3 4.4-3.4.7-2 .2-3.9-.6-5.9-.6-4.4 7 2.4 11.9-1.7 2.5-.7 4.6-7.4.7-3.2-1.8 2.1-11.3 2-9.5-2 5.8-2.8 6.7-6 8.8-11 1.5-.9 1.2-3.6.9-5.2h.3c-.7-2.3-3.2-3-5.1-3.9a61.8 61.8 0 01-12.8-9 28 28 0 00-13.4-9c-3-1.3-6.9 0-9.5-1.8-2.1-2.1-8.2-8.6-11.6-6.5-2.3 1.8-3.6 5.5-6.8 6.3-13.6 1.8-25.3 17-28.2 29.4-4 5.6-8.5-7.2-13.4-3.5a2.8 2.8 0 01-3.2.3c-12.9-5-11.4 11-15.3 7.3a40.3 40.3 0 01-6.3-9c-.7-1.6-1.2-1.4-2.8-1-4.1-.4 4.6-7.6 0-13a38.4 38.4 0 002-8.8c3.5-1.4 6.3-7.2 2.6-9.1-2.9-1.2.8-5.5 2.4-6.4a34.1 34.1 0 007.4 0c2.7 1 5.3 2.8 8.1 1.3 15.2-2.3 3.9-7.3 20.8-13-3-5.7-10-5.4-15.6-6.3-1.7 0-2.5 2.3-4.2 2.2-1.2-.7-.2-2.5-.8-3.4-3.3-.3-6.5 1.4-9.3 3.1-1.7-1-5.4-.9-4.7-3.6a76.9 76.9 0 00-.6-35c-3-18.9-16.5-35.3-29.7-48.2 0-4.5-4-7.7-8.1-6-7.2-3.8-2.4-4.8-7-8a5.8 5.8 0 00-4-.3c-2.6.5-4.6-1.4-7-2-11.9-3.2-26.6-7.7-36.6 1-11.8 11.5 7 22 4.4 31.1-1.7 1-1.4 3.7-3.4 4a8 8 0 00-7.7 6.3c-.3 1 0 2.6-1.4 2.8-4 .4-2.7 5.5-5.2 6-22 4.5-29.6 34.6-24.2 55.6-.8 1-.8 2.7-2 3-2.6-1.5-1.8-5.8-4.8-7.7a5.9 5.9 0 00-2.5 3.5c-1.4 3.5-4.6-3.8-9.8-2-1 0-2 1-2.3 2.3-3.3 3.5-7.9 5.4-10 9.9 3.6.9 8-1 11.4 1.9 2.6 1.7 2.7 5.3 5.8 6.5 3.1-4.7 11.8.8 14.1 4.2-3.7 7.8 3.8 5.4 4.6 8.3a20.7 20.7 0 002.5 7.2c1.5 2.8-3 4-1 7.9 2 9 8.6 3.5.6 12.3-2.6 2.1-3.7-6.8-14.4-5.5-7.7 8.5-7.8.4-15.9 9-6.7-16.2-11-24.1-26.8-32.2-5.3-1.2-5.5-7.4-10.2-9.3-3.8.5-5.2 6.1-8.5 6.2-6.7-2-22.2 7.4-28 11.5-1.3 7.6-11.1 7.4-15.4 12.9-1.8 3 2 5.4 1.8 8.6.4 6.6 7.4 9.4 12.8 11.2h.2c0-1.8-.6-4 2-4.4 3-1 7.5-6.7 9-.5-.6 4-5.3 1-7 3-.8 3.6-4.2 4.5-7.7 4.2-2.8-.1-6.5 3-9 .5-4-4.4-2 4.3 1.3 4.3 4.7.5 12.3 1.5 13 7.5.4 2 3 2.6 3.4 5 1.6 3.1 2.6 4 4.9.7 4-4 7-3.8 6.8-10.7 1.2-2.8 5.6-2 8-3.1 2.1-1 3.5 8.3 2.3 9-5.2 9.4-15.9.1-19.6 16-.2 1.5-1.9 1.7-2.8 2.6-5 4.2-7.2 11.9-3.6 17.5a2.6 2.6 0 01-.2 3.2c-9.6 14.9-29 18.2-39.7 32.1-4.8 3.5-9.6 6.3-14.3 9.6C23 284.2 6 277 11 262.7c7.4-25.9 67.3-68 20-85.6-12-7.2-23.5 4.1-27 15.3-2.4 7.8 5 14.8 1.5 22.2 2.8 1.2 5.6-4 8.2-3 14.4-.5 6-23.6 20.7-21 9.3 4.6 1 17.4-1.6 24.2-12 19.6-36.6 36.3-32.1 61.8C4.3 296 30 297 43.2 287c1.1-1 2.4.2 1.9 1.5-.9 4 0 8.2 0 12.3 1.9 17-11.2 8.8-10.1 23.6 7 10.6-5.5 19.7 0 26.3 2.7.4 2 3.2 3.3 5 1.6 1 4.4-2.2 6 .2s4.9 2.1 6.5 4.4c2.6 7.5 22.1 4 28.7 4 3.4-.6 9 1 7-4.4-.5-1.8-2.3-3.3-3.7-4.5-4.2-8-2.9-7-12.5-6.5-17.4 2-15.2-12.3-14.3-24.5a1.2 1.2 0 011.4-1 23.7 23.7 0 009.2-3.4c7.5-2.5 11.7-9.3 17-14.9 3.4 3.2-2.4 10.8-.4 16.5 21.5 13-.8 15.6 20 30.4 1.7-.1 1.4-3.6 3.4-3 4.5 1.5 8.3 4.4 12.7 6 2.7.7 5-1.2 7.6-1.2 3 .2 5.6 1.8 8.6 1.5 1.6 0 2.7-1.8 4.2-1 2.3 1 4.5.3 6.9 1 2.8-22-12.7-17.8-28.6-19.3-4.8-1.9-7.5-8.2-11.1-11.8-8.9-18.8 19.5-24 2.4-54 .5-2.3 6.8-4.2 8.5-2.8a88 88 0 0025-12.8c1.2 1.3 3.9 2.2 3.5 4.3-.7 3.5.5 7.9 4.3 8.9.2 2.3 2.6 3.5 4.5 3.6a15.5 15.5 0 013-1 6.7 6.7 0 012.4 2c1.1-.5 2-1.8 3.3-1.6-3 65 36.2 62.8 80 86.5 5.4 3.3 6.3 13.1 15 6.6 20.8-29 66.4-19.7 82.4-53-.2 2-.8 4.3 2.9-11 1.7-8 .7-18-1-25.8l.7.8c1.8.3 7 3.6 7.3.9 1.9-2.2 3.4.5 4.8-4.2.3-.9 1.2-1 2-.9 2.4-1.4.6-12.5.3-15.5-1.4-2.7-3.3-5.5-2-8.3 15.8 16.9 17.3 17.3 39.8 22.4 1.6.4 5.8.2 4.9 2.7-12.5 18 9 36.6 6.9 50.4-.9 2.8-3.7 4.4-5.1 6.8-3.3 3.1-4.9 9.4-10.4 8.9-3.2 0-5.8 2.8-9 3.4-7 1.4-20 0-18.4 10.7 1.2 3.8 5.6.7 8.1 1.5 2.4 1.2 5 .4 7.6 0 4.3-.8 8.7 1.6 13-.1 3.8-1.3 11 2 12-3.3.5-1.2 2-.5 3-.8 1-.7.7-2.5 2-2.9 1.5-.3 2.5-2 4.2-2.5 1.7-1-.3-5 .3-6.7.3-3 3-7 6.4-7 .6-.8 1.9-1.5 2-2.6a2.1 2.1 0 011-2c3.8-1.4 7.2-3.8 9-7.7.6-2.5-2.6-3.2-3-5.5-2.3-6.4-1-6 3.8-2.3 3.7 2.6 8.7 2.1 12.5 4.5 7.6 4.3 15.4 16.7 13 25.7-14 16-19.6-.7-27.4 10.5-2 2.2-5.8 1-7.3 3.6-2.1 2.5-2.9 7.5 0 9.6 4.7 2 10 .3 14.8 1.2 25.1-2 12 1.4 27.8-13.2a2.7 2.7 0 002-3c1.2 1.2 6.4 7.2 7.8 4.8.7-3 3.7-4 4.7-6.8 4.8-8-9.5-6.1-7-28 4.7-13.7-18.1-6.6-11.3-36.6 1.7-1.4 6.5 2 9 2.1 15.7 5.7 43 0 38.3-21.3m-23-65.1c.4-3.4 1.4-6.6 1-10 0-1.4-1.2-3.3-.3-4.5 6.6 2 14.8 15.9 8.7 22.1a8.2 8.2 0 01-.2 1c-2 0-2.6-2.6-4-3.7-1-2-.3-4.4-1.5-6.5.6 5.9-2 9-3.7 1.6m-324.5-80.8c-.2.5-.8.4-1.2.5-1.5-.5-3.2 0-4.6-.3-3.3-2.7 6.5-3.9 5.8-.2m3.2-1.4c-10.2 0-2-6.2.4 0zm-.7-2.7a1.4 1.4 0 012-2c-.2-3.6 5.4 1.5 4.6 3.4-.6 1.2-1.6.1-2-.7l.4.8c-1.6 2.7-3.7 0-5-1.5m5.2 10.3c-1.4 3.1-5.8-3.5-2.3-2.3a5.9 5.9 0 002.5 2zm3.4-2.2c-1.1 2.7-5.4 1.3-6-1.1-.7-4.6 6.8-2.3 6 1.1m240.4 99.6c2 .2 1.2 3.7 1.7 5.2-1.2-1.2-3-3.9-1.7-5.2m-2.8 3.4c.4 1.6 3 4.9 1 5.9-3.4-2.6-5-7.4-6.6-11.2.8-3.8 5.2 4.1 5.6 5.3m-15.2-24.2c6.1 2.9 12.8 6 14 13.4.6 1-.2 3-1.4 1.9a132.4 132.4 0 01-13.6-5.9c-1.7-.2-10.7-7.3-7-8 3.3 1.4 6.3 4.3 10 3.8-1.4-2.9-13.2-5.8-9.4-10.5 2.4 1.8 4.7 4.2 7.4 5.3m-1 28.4c-1.4-.2-2-4-1-4.9 2.3 0 6 5.5 1.4 5v-.1h-.4m2.6-5.5c-3.5-8-15.5-2.9-19.2-10-1.2-5 2.3 0 3.8-.9 2.9-.3 5.2 5.4 10.2 4-2-2.8-8.6-6-6.4-10 1 0 1.3 1 2 1.6 1.7 2.1 4.5 2 6.3 4l-.8.8c3.9.4 8.7 4 7.1 8-1.7.3-3.3-2.8-4.6-3.7 0 3.6 6 5.7 5 9.1-1.5.7-2.5-2-3.4-3m-30.9 1.6c.3 1.1 2.3 6.1-.4 5-2.7-2.3-2.6-8.3-6-10.4-1.4-.4-3 1.2-3.8-.2-.7-2.2-.7-4.7 1-6.5.7-1.4 0-3.4 1.2-4.8.7-1.7 2.7-1 2.9.7-.4 1.3 3.7 8.3.3 6.3 1.8 2.6 4.2 4.3 6.5 6.1 3.2 3.4 1.4 9-2 3.1a5.8 5.8 0 01.3.7m-2.8 6.7c-1.9 6-3.5-4.4-2.9-6.2 1.6 1.7 3.7 4 3 6.2m-4-7l-1.6 1.2c-1.6-1-1.6-4.6.6-4.7 1.6 0 2.2 2.7 1 3.5m9.3-4.7c-3.5-4.7-7.7-16.4 2-7.9 1 .4 1.2-2 2.3-1.2a1.3 1.3 0 01.6 1.3c-1.6 5.2 6.4 6.2 8.2 10.4 1.3.1 1.6-2 2.9-2 1.9 1 5 4.9 3 6.9-.4 2.6-1.9 5.3-4.6 6.1-3.6-1.4-3.2-6.7-5.7-9.4l-.6 1c-3-1.2-6.2-2.6-8.2-5.2m13-29.2c0-1.5-1.1-10.2 2-7.8a21.9 21.9 0 01-.9 12.8l-.9.2c-.3-1.7.2-3.3-.1-5.2m4.7.5l.3-3.6c.3-1.3 2.4-1.7 2.6-.2 2.2 3.7-.4 11.3-2.9 3.8m-8.4-47.9a.6.6 0 00.2-1c-2.6-5 4.3-13.6 8.5-7.2a1 1 0 01-.5 1.4c-3.8 1.7-1.6 6-3 9.2 0 4.6 3.6.8 6.1 1.4-6.5-7 .5-12 1.6-7.2 9-2.4 36.2 12.7 12.3 12.4-4.4 0 1 1.3 1.7 2.4a9.3 9.3 0 0010.6 3.2c-1-1.6-.7-6 1.7-5.8 3.9 3 8.3 5.6 11.9 8.8h.4c1.7 3.8-4.5 3.9-6.4 2-1 3.6 4.3 3.5 4 5.6-.6 1.8-2.6 6.8-4.9 5.2l-.6.3a.9.9 0 01-1 .4c-1.5.4-3.6.7-5-.3-2.7-.6-2.2-3.9-4.4-4.6-2.2-.2-4.1-2.4-6.4-1.8-2.6.5-6 2-4 5.1 6.1 9.3 9.2 2.7 14.5 7.4 1 1.3 4 6.3.9 6.3-2 1.4-2.4 4.2-4.7 5.2a1.6 1.6 0 01-2.7 1c-2-1.7-1-5.8-3.8-6.8-6.3-3.9-4-3.2-11.4-2.8a.9.9 0 01-1.2 0 7 7 0 00-4-1.4c.1.6-.1 1-.8.9a2.8 2.8 0 01-2 0c-3 1-2.6-4-1.5-5.5 1-2 0-3.2 1-5 1.4-1.5.6-7.4 3.7-5.3-.5-2.5-3.7-6.6-1-8.3 1.4-.7 2.5-3.7 1.2-4.8a.8.8 0 01-.4-1c-4.3 4.1-14.8-4-10.5-9.4m35 32.4c-.2.8-1.3.7-2 1-7.6-.4-4-7.2-1-4.7.4 1 .7 2.1 1.8 2.6.4.2 1.1.5 1.1 1m-37.1-23.2c1-2.2 2.8 1.8 3.7 2.6 1.6 2 6.1 3.8 2.8 6.5a13.6 13.6 0 01-6.5-9.1M353 163.8c2.1-11.7 10.4-23.2 22.9-25.1 3.5-.3-2.2 9.2-.7 13.4-1 7.6 14 13.4 9.5 17.2-3.4-1-6-4.2-9.5-6 2.2 3.3 7.8 5.8 7.3 10-1.5-1-2.8-2.5-4.3-3.6 2.2 2.3 5.5 5.7 3.8 8.9a.7.7 0 01-1.3-.2c-2.7-10.5-14.5-10.4-11.9-27.7-4 8.3-.2 18 7 23.3 2.3 2 1.8 5.9 4.9 7.4a6.9 6.9 0 00.7 4c1 3.8-.6 7.7 1.2 11.5h1.2c-.7 3.8 1.7 8.9-1.7 11.7-4.4 6.1-2.7-12.6-4.9-14.7-1.2 2.8-1.2 6.5-3.8 8.4-1.8.3-1.1 2-1.5 3.2.4 4.2-7.2-3.4-7.4-4.9-.5 3.4-4.3 1.7-4.2-1 .4-2.9-1-6.4.7-8.9a1.7 1.7 0 012.6 2c1.7-3 5.8-3.3 6.2-7.3.9-2.5.4-5.7 2-7.3 1.6 0 6.9 9 2 6.5.7 1.7 2.8 3.3 2.6 5.7 5 1.2-.7-13.6-3.8-14.3-11.5-7-12.3-14.9-8.4-27-7.6 10.8-.1 18.2-8.3 25-2.4-2.8-3-7-2.9-10.2m.1 19h.1c.7-4.6 4.3-7.3 7.9-9.1 1.2-3.4.5-5 4-1.8 3 2.7.8 12.3-2.3 14.6-2 1.6-5.5 2-5.6 5 0 5 2.2 11.1-.5 15.6-2.3 2.2-3.5 5.8-6.4 7.1-3.6 2.8-5.5.6-3.7-3.3 2-5.2-3-14.3 2.8-17 5.6 7 0-1.7 3.8-11zm-38.4 103.6a4.6 4.6 0 00.4-3.7h.1v-.3h26.1l.6 6.5-27.1.1a3.9 3.9 0 000-2.6m0-5c-.4-1.4-1.4-3-3.2-3-1.7-2.3-5.1-.9-6.9.7a16 16 0 00.8-4.4l34.6.2c.5 2.3.8 4.3 1 6.4l-26.2.2m-2 5.3c1.4 6-10.1 6-4.8-1.3-1.8 1.3-3.8-1.3-3.8-3 .6-2.6 8.1-5.7 5.3-.8 2.9-4.4 5.6 3.3 2.7 4.9a.9.9 0 01.6.2m-3.9 13.3a2.9 2.9 0 01.2 1.1c-.8 1.2-2.8 3.6-4.2 1.8-.8 3.6-5.3-2.1-4.8-4-.7-2.8 1.8-4.7 4-2.8-.3-1.6 1.2-2.6 2.2-3.5 2.4 0 6.7 8 2.6 7.3v.1m-19.4-.1c-5.7-1.7 7.7-12.8 5-2.9 8.6-7 2.5 11.1.2 5.4-1.2 3-7.8 0-4.8-2.6a3.5 3.5 0 01-.4.1m-22.3 12.4c7 3.6-16.7 8.6-4.6-1-10.8 4.6.5-9.9 1.4-3.6 2-2 4.7 2.8 3.1 4.6h.1m-2.6 13.6c.6 2-1.4 2.7-2.9 3.1l-1.4-.5c-4 4.2-9.6-11.2-2-5.6-5-10.6 11.9-.3 6 2.5a4.3 4.3 0 01.3.5m-12-5.7c-5.2.4-5.8-8.7-.7-8.9s6.3 9 .6 8.9m1.2 6.8h-1.4l.7-2a9.1 9.1 0 00.7 2m-11-1.2c-5.4-1.6 8-13.3 4-2.4 1-2 5-2.6 5 0-.5 2-2.9 9.2-4.9 5-1.1 1.8-3.3 0-4.3-1-.2-.7.1-1 .3-1.5h-.1m-3.4-11.7c-1.8-1-1.8-5.6.8-5.8-1.4-1.6.3-3 2-2.8 4.5.6 8.9 9.2 1 6.8 9 4.5-7 7.3-3.6 2l-.1-.2m5.6-9.5h2a15.3 15.3 0 00.6 2.5 13.4 13.4 0 00-2.6-2.5m4-2.6c0-1.6 1.5-.8 1.6-1.8.4-2 3.5-1.5 3.7.6 1.3-3.1 3.7 1.7 3 3.6-.3 3-3.8 7.5-4.6 2.2a3.8 3.8 0 01-1.5 2.5 7 7 0 01-2.2-7m9.5 4.4a10.7 10.7 0 00.5-1.9h1.9a10.8 10.8 0 00-2.5 2zm5-2.3h-4.4c.3-2.7-1.2-6.7-4.3-6.2a3.8 3.8 0 00-5.8 1.1c-1.8 1-2.2 3-2.1 5-9-.4-22.2.3-31.4 0 2-1.9.7-5.2-1-7h72a4 4 0 00.9 3.8 3 3 0 001.7 3.2h-25.6m-50.7-1.2c.6 1.5-2.6 3.4-3.7 2-1 3.9-5-2-5-4.3 0-4 2.7-2.6 4.2-.3-.4-1.7-1-3.3.5-4.7 2.8 1 6.5 3.6 5.7 6.8-.3.8-1.1.8-1.7.3v.2m-10.2-7.5c-5.7.3-5.2-8-.1-8.7 5.3-.3 5.9 9 .1 8.7m.7 8.6H202l.7-1.5a9.8 9.8 0 00.6 1.5m-10.8-2.1c-2 .6-1.3-2.2-.8-3.3.7-2.7 7.5-5.3 5.6-.7.8-1 2-.8 3-.3 3.9.2-1.9 11.3-3.3 6.2-.8 2.2-5.4 0-4.5-2m-4.8-13.2c.2-1.8-.3-4.9 2.3-4.6-1.2-8 15.2 5.7 2.5 4.4 11.8 5.9-6.8 9.4-3 2.8a2.5 2.5 0 01-1.8-2.6M291.3 278a24 24 0 001.7 3.6h-.3c-2.5-1.8-7.4-4.3-8.7 0h-67c-2-1.4-4.6 0-6.7 0 .8-2.7.6-5-1.2-6.8 27-.2 55-.2 82 0a6.1 6.1 0 00.2 3.3m13 11.2c-.5 6.7-12.4 5-8.6-2.2 2-4.3 9.6-2.9 8.6 2.2m-.7-13.5c-.3 3.8-3.6 10.5-4.8 2.7-.7 10.6-9.2-2-4.4-6a.8.8 0 011.3.5c.1-.8.4-1.9 1.5-1.8 1.2.2 3-.2 3.2 1.3 1.6-2.8 3.8 1.8 3.2 3.3m-12.3 13c6.6 3.6-10.3 6.4-5.8 1-2.7-.3-2.8-6.7 1.3-4.8l-1.3-1.4c0-7.1 15.3 4.5 4.7 4.7a5 5 0 001.1.5m-78.3 6.4c3.3.2 7.5-1.4 6.4-5.3a1.2 1.2 0 00.1-.1c20.8-.1 42.3-.1 63 0a3.5 3.5 0 00.4.6c-.7 2.9 2.6 4.4 5 4.1a7.9 7.9 0 00-1.2 2.3h-73a11.5 11.5 0 00-2-1.6 9.4 9.4 0 001.3 0v.1zm68.8-8.8a21.2 21.2 0 00.5 2.8h-62.5c.4-1 .3-4.6-1.7-5.7a3 3 0 00-.6-1.3h66.3l-.1 1a3.1 3.1 0 00-1.9 3.2m-71.3-4c-.3 0-.6.3-.8.4l.2-.5zm2.3.7c1.5-.8 5 .1 2.8 2.1 2.9-1.4 3.5 4.1 1.2 4.7 5.8 4.3-16.1 5.7-4.1-1.5-7.1 2.4-4.4-3.6.1-5.3m-4.3-2c-2 6.4-5.2 6-5.7-.7-1.6 13.5-9.8-7.8-3-4.8 0-2.7 5.9-1.6 6 .5 2.6-2 3.8 3 2.7 5m90.9 22v-.2a7.3 7.3 0 001.3 1.4h-2.4a5.5 5.5 0 001-1.3m6-29c-.2-2-2-5-4.5-4a6.3 6.3 0 00-2.8-.6v-.1a3.4 3.4 0 00-3.2 1.2c-1.8.1-3 2.3-3.4 3.6-27.9 0-56.8.5-84.7-.3-1.8-1.6-5.7-2.3-7.6-.6a3 3 0 00-2 .8l-30-.2c0-2 .3-4.3.5-6.4 56.6-.4 114.3-.4 170.9 0l1.4 6.5-34.5.1m-126.3-14.2c52.2-.5 105.3-.3 157.4 0l1.7 6.4c-56.5.5-114 .4-170.5 0 .2-2.1.6-4.3 1-6.4H179m-10.1-1.1c.8-2 .3-6.3 3-6.5 51.8-.3 110-.3 162 0a42.5 42.5 0 012.1 6.5c-55.3.4-111.7.4-167.1 0m169.4-24.5c-2.8 3.3-1 7.6-1.9 11.7-2.8 4.5-4-18.6-4-19.9-1.6-2 8.7-42 10.7-30.7-.9 5 1.5 9.5-.2 14.4-.4 3.6-4 9.4 2 8.5 2.3 0 2 1.6.6 2.8-2.8 4.3-4.7 8.7-7.2 13.2m-.1-46.7c1.2-1.6 4.4-1 3.5 1.3-.9.8-2.8-.2-3.5-1.3zm10.5-17c.3-2.9.2-6.9 2-9.5.3 1.4.4 4.7.5 6.3.3 4 3.4 8.8-1 11.6-2.7-.4-1.1-6.2-1.5-8.4m-4 4.2h.2-.1a1.2 1.2 0 011.4-.8c.5 1.6 1.6 4.7-.5 5 .6 2.3 2.7 4.3 2.8 6.7-.2 2.8-2.7-.2-3.2-1.3 1.2 2.5 5.3 7 1.1 8.8-3.8-5-5-12.8-1.6-18.4m-13 1.5c.5-1.5 1.2-9.8 3.9-6l.2-.2c.8-1.1 2.7-.3 2.8 1 1-1 3-.6 2.8 1 .1-.8 1-1 1.4-.3.4 1.3-1 3-1.5 4.3l-.2-.9c.3 2.1-3.4 3.8-3.3.9h-.1c.3 1.6-2.5 3.2-2.7 1l-.2.2c-.2 2.3-4 1.2-3.2-1m-1.5 6.6c1.1-1.6 4-.6 5.7-1.5 2.1.2.5 3.2.7 4.5-.3 2.4-6.5-1.7-6.4-3m-7-17.3l.9-.8-.1.6c.8-.7 2.4-1 3 0 .8-.4 1.6.4 1.4 1.2a1.3 1.3 0 011 .3c.6 0 .6.8.5 1.2-.8 1.6-.4 3.7-1 5.5s-2.2.6-2-.7c.2 2.1-2.9 2.6-2.7.3h-.2c0 1.5-2.3 1.3-2.2 0 0-.8.4-1.6.4-2.4l-.2.5c-1-2.1-.9-4 1.1-5.7m5.4 11.9c0 1.3.7 5.2-1.7 3.6-1.5-1.1-6.2-4.3-1.8-4.6 1 .2 3.3-.7 3.5 1m-14.3-58.2c-1.4 0-1.8-2.7-.4-3 3.5-1 3.2 2.3.4 3m21.2.4c-1.3 2.4-3.9 1.9-5.9.7-2.5-2 .7-5.3 3.2-4.7 2.4-.7 3.7 2 2.7 4m-7.6-6.3c1.5-2.5 4.6-6.4 7.8-4.4 2.2-1.5 7.4-1.8 8.6 1-1.3 2.1-4.6 2.7-6.9 5-3 .5-.3-3.4.9-4.2-3 2-6.5 2.7-9.8 3.9a.9.9 0 01-.6-1.3m-.7 6.6a1.6 1.6 0 01-.3 1.2c.7-.3 1.1.4 1.4 1-.3 1.5-3.2 2.2-2.6.1-6 2.1 0-7.3 1.5-2.3m-8.6-4.9c2.9-1.2 1.7-4.9 3.4-7 9.4-7.3 3.1 9.8-1.6 11l.8-.7-.3-.3a1 1 0 00-.3.1v-.1h-.1c.4-1.6 1.7-3 2.3-4.5-1.9 2.6-3.6 5.5-6.3 7.3-3.8 1 .9-5.2 2-5.8zm-3.8-7c4.6-1 5 5.5.7 5.7-3.5.4-4.4-5.4-.7-5.6m-32.3-83.7c3.7-2 9.6 8.7 12.7 11A95.2 95.2 0 01312.4 74c.8 3.8 2.2 29.6-3.3 30-10.5-4.5-3.4-4.8-5.3-12-.8-.3-2.5-.7-3-1.1 0-2.4-2-7.5-5.4-6.7-2.7.1-2.8 3.4-5 4.3-2.2-.2-4.6.6-4.7 3.3-.3 2.1 3.5 7.7-1 6.8-1.7 1.3-3.2 2.7-5.5 3-3.8 3.1-10.4-16-12.2-19-5.2-8.2-10.3-17-16.6-24.3-.7-1.9-7.1-6.4-4.2-7.4.6-1 1.9-.6 2.7-1 1.8-1.2 4.2.1 5.9-1.4 2.8-3.6 2.2-1.9 5.5-3.8 4.6-6.7 7.3-.1 10.4-7.8 2.2-1 4.8-1.5 5.3-4.6.2-1.5 3.5-2.3 4.3-3.2 1.5-1.2.7-3.6 2.2-4.7m14.4 76c-2.5-.4-.4-4.7-1.7-6.8-1.6 1.8-1 6-3.3 6.4-4.4-.6-6-14.4.5-9.3 3.2-8.7 6.2-4.8 6.1 2.4 3.8-2.1 3.7 3.8 1.2 5-.7-.1-1-.7-1.2-1.2 0 1.2-.1 3.2-1.6 3.5m-.3 6.8c-1.9 3.4-7.7.5-5.4-2.9 1.7-3.3 7-.3 5.4 2.9m-16.8 4.2c2.8 2.1 5.6.5 8.4-.1a3.8 3.8 0 011.4-.4 2.6 2.6 0 01-2 3.4v-.1c-5 2.2-17.7-1.2-10.9-7.8.9-1.5 3.9.6 3.1 2.2 0 .9-1.1 2.2 0 2.8m4.5-9h.1c-.8-3.3 3.7-3 4.6-.5-.6 3.6-2.3 3.1-5.2 3.7 1.4 1 4 .6 4.8 2.2-.3 3.4-10.2 4.8-5.5-.4-3.9-2.5-4.2-5.5 1.3-4.5a1.2 1.2 0 000-.6m13.8 11.9c0-1.1 1.4-3.5 2.4-1.6 1.8.1 3.6-1.2 5.3-.4 3 .1-.3 3-1.5 3.3-1.2-.7-2.4 1.1-3.5.4-1 0-2.8-.5-2.7-1.7m7.9-3.9c-1.9-.7-6.9.7-7.2-1.9.7-2 3.4-.3 5-1.9a6 6 0 00-3.2-.5c-3.2-.6.6-5.4 2-2.4 3.1-.7 5.6 1.2 7.5 3.5-1 1.5-2.4 3.4-4 3.2m-56-11.7c-1.2-.2-1.4-1.3-1.1-2.3.3-2-.5-4-.7-6-1.4 2.7.4 11.6-4.6 7.2-2-2.4-4.8-5.3-4-8.6.3-2 2.2-.8 3.2-1.4 4.5-5 5.7-5.6 8.8.7 3.9-1 4.4 1 3 4.1-1 2.2-2 6-4.6 6.3m-.9 6.2c-2.4 1.3-5.4-2-2.8-3.8 2.8-2.2 6 2 2.8 3.8m-9.8-.3c5.6-1 3.2 2.6-.5 3-1.2.1-.7-1.4-1.5-1.8-2.6-.6-3.5-3-.6-4 3-2.3 8.6 1.5 2.5 2.3-.1.2-.1.5.1.5m-3.5 3.1c-.8 2 2.6 2 3.9 1.6 5.9-2.4 1.3 3.3-1.6 3-4.4 1.4-10-3-6-7 1.3.6 4 .4 3.7 2.4m1.5-41.2c-4.7-.3-2.6-8.2 1.5-6.8 3.5 1.3 2.5 7-1.5 6.8m1.2 3.7a5 5 0 01-1.2 2.3 7.5 7.5 0 01-2.6-3.3c1-.5 4.2-.8 3.8 1m3.6-1.2c6.4-3.2 5.7 8 2.3 4.7-3.8 2.1-4.9-2.9-2.3-4.7m7.3 8.5c7.6.3 3.2 10.7-.4 1.7-3.5 4-3.4-1.6.4-1.7m-1-3.7a1.8 1.8 0 011.2-1.3c3.5 1.7-1 3.9-1.2 1.3M241 77c.8-.9 2.4 0 3.2 0 1.7.6-.2 2.7-.4 3.9-1.2-.4-3-2.5-2.8-3.8m16.2 21.7c1 .6 1 2 1.7 2.8 1.5 0 3.6-3 4.7-.6-.3 1.6-1.7 2.6-3 3.4 5.6 4-7.1 4.6-7.9 1 1.4-1.3 3.9-.4 4.8-2-1.5-.2-3.1.2-4.6-.2-.1-1.6 2.7-4.9 4.4-4.4M257 92c.5-2.5 1.3-5.8 2.6-1.4.4 1.8-3 4.7-2.6 1.4m-.6-7c-1.2 1.2-2.4-1-.9-1.5a1 1 0 011 1.5m-3.4 23l.2-.1c3.5 2.4 9.2 2.4 12.5-.6 2.5 1.7-2.8 5.2-4.5 5.7-3 1.9-9.7-1.6-8.2-5m13-11c0-.2-1.4-3.4-1.4-3.7a166.1 166.1 0 00-30.5-43.6c-.9-1.8-4.4-3.4-4.1-5.4 6.3-7.4 50.8 59.6 36 52.7m-35.5-37.8c-5.3 0-4.7-8.1.5-7.7 5 .4 4.1 8-.5 7.7m1.7 2.8c-.3 3.1-1.5 2.8-3.2.6-.9-1.5 1.6-1.4 2.5-1.6.2.3.7.5.7 1m-3.2-20.7c-2-.4-2.7-3.8-.4-4.2 4-.6 5.3 5.5.4 4.2m1.4 7.9c-.8 1.4-2.8-.9-1.4-1.7a1.6 1.6 0 011.4 1.7m12.1-3.8c1.6-1.4 4.8-2.5 5.3.5.2 4-7.3 3.4-5.3-.5m25.3 58c.1-3.4 5.4-4 6.2-.9 1.7 4.9-6.9 5.7-6.2.9m-18.5-59.8c1.2-2.6 5.5-2.4 5 .9.2 4-6.8 2.7-5-.9m6.4-2c-.5-3.1 4-4.5 5.3-1.6 1.5 3.4-4.8 5.4-5.3 1.6zm11.7-6.4c2.4 4.2-4 6.7-5.6 2.4-1.1-3 4-6 5.5-2.4m0-5.1c1.2-3.8 7.3-1.8 6.6 2-.8 4.3-8.4 2.2-6.6-2m9-12.5l.3-.6v.2c2.7-5.2 8.4 2.5 3.8 4.4-2.2.6-5-1.4-4-4m.8 5c4.1 1.5 2.2 7.6-1.8 6.2-3.8-1.1-1.8-7.5 1.8-6.2m-6.6-7.6c2.7-.2 5.5 3.2 3.6 5.8-.3 1.4-3 3.1-3.3 4.3-1.4 1.7-4 1.6-4.3 4.2-.6 2.8-4.5 1-5.2 4.2-1 4.7-3.2 1.3-6 4.4-2.8 2-6.4 4.7-10 4.2-2.8-.5-3.6 3.5-6.4 3.3-2.8.2-5.3-3-1.8-4.4 2-1 4.4-.6 5.7-2.8 2.4-3.4 5.8 0 7.3-5.8 8.2-1.2 4.9-6.4 8.8-6.7 4-1.2 3.1-6.4 8.6-6.6 1.6-.9 1-3.7 3-4.1M237 34.4c1.2-1 3 0 3.4 1.3.9 5.2-7.7 3.6-3.4-1.3m5.3-2.7c.6-4.6 4.8-3.8 5.5.1-.4 3.4-6.3 4-5.5 0m6.7-7.7c1.1-4 7.6-1 5.7 2.5-1.8 4-7.9 1.3-5.7-2.5m7.5-5.6c1.4-2.1 5.2-.5 4.7 2-1.5 4.4-7.6 2-4.7-2m8.7-8.6c-.6-3.4 4.8-2.7 4.5.1.7 3.7-5 3.4-4.5 0m-1.6 2.8c2-.8 4.6 2 3 4-3.3 3.3-7.5-2-3-4m-37 13.5C201.9-8.2 269.4 2.7 262 11.7c-3.3 7.9-6.3 1-8.1 7.5-.3 2-2.5.6-3.7 1.5-2 .9-2.3 3-4 4.7-1.4.9-3 1.2-4 2.6-1.4 1-1 5.4-3.4 4.8-2.9-1-4.5 4.5-7.2 2.6-2.6-.2-2.4-6.5-4.9-9M218 45.1c2.3-4.8 8.6-2.2 8.3 2.4-.2 6.9-11.8 4-8.3-2.4m7 10c.4 4.4-5 0-2-1 1-.5 2.3-.1 2 1m-12.3-1c.3-1 1.8-1.4 2.9-1.6 9.7 8.7 19.2 18.4 25.6 29.7 1 .4 1.8 2.5.4 2.6-2.6-.1-3.1 2.7-5-1-7-8.6-13-18-21.4-25.8-1-1-3-2.2-2.4-3.9M186 89c1.2-13.6 9-28.4 23-32 4 1.3 6.3 5.7 9.3 8.5 8.9 8.8 17 19.4 21.1 31.3 1 1.2-.2 2.3-1.2 1.6-.9-.4-1.7-1-2.6-.5 1 2.1-.6 2.2-1.8 3.5-2.3 3.2-2.8-3.2-6.8-2.7-4.6.5-5.4 3.6-11 1-1 1-1.7-1.4-3-.2-5.8 2.9-1.7-7.6-7.5-9.4-3-.3-4.6-4.4-7.7-2.8-1.5.7-1.2 4.4-3 4.8-5.5 3 5.8 10.7-1.7 12.5-8.5 10.8-8.4-12.9-7.2-15.6m43.8 15.3c-.4 4.4-7.4 2.4-5.4-1.5 1.7-2.9 5.6-2 5.4 1.5m-16.6 1c-1.6.7-5 2.1-4.2-1 .9-.8 2.7-3.9 4-2.5.2.4.3 1.1.8.9 8-2.4 5.6 3 1.2 6 1.4 3-3.4 2.3-5 1.7-.7-2.5 2-3.4 3.2-5.1m2.7 5.9a25.6 25.6 0 014.3-4.4c1-1.7 4.3 1.7 3.5 2.8 0 3.2-6.2 6.2-8.3 4-.9 0 .3-2 .5-2.3m-14.6 4.7c-.7 2.4-3.3 3-5.5 3-2 1.5-4.3-3.1-1.2-2.8a12.5 12.5 0 004.2-1 1.3 1.3 0 011.8-.8c-.8-1 1.4-2 1.7-.7 0 .7-.5 1.4-1.2 1.2a1.1 1.1 0 01.2 1m-.6-19.6c.3 2.1 0 4.2 1 6.2-1.6 4.9-10.8-10.7-4.5-8.7.4-5.5 3-5.3 6-1.5 6.2-4.6 4.4 24.3-2.5 3a3 3 0 000 1m-2.2 9.3c3 2.2-1.1 2.8-2.2 4.1 3.3.3 5.8.8 2 3.8-1.1.5-2.6-.6-4-.6-.4-1.8-3.3-2.8-2.3-4.5.7-.9 2.5-1 2.6-2.1 0-1.9 3-1 3.9-.7m3.7.8c1.7-3.7 7.3.4 4.6 3.3-2 2.1-6.2-.3-4.6-3.3m-10.7 8c-.6 3.9-8 2.2-5.8-1.8a3.1 3.1 0 015.8 1.8M181 120c1-1 2.6-3.4 4.2-2.2 1.1 1.3 4.2.4 4.5 2.3.6 2.4-1.6 3-3.4 3.7a9.5 9.5 0 01-5.4-3.6zm-5.3-3.2c0-7.3 3.8-5.4 4 .5.6 1.4-1.7 4-2 1.7.1-.7.6-1.6.2-2.2-.6.6-1.9 1.3-2.2 0m4.3 9.1c-2.3-.4-5.5-1.8-2.5-4.2 5.1 2.3 12.1 7.9 15.2.1 16.4 4.9 5.6-18.2 19.3-5.2 6.7 1.9 12.3 1 14.4-6.4a1.7 1.7 0 011.5-1c7.7 8 12.3 9.6 18.7-1.1 1.2.1 3.3-.7 3.8.7 1.4 4.8 8 9.8 13 6.7 2.8-1.5 5.2-9.1 8.8-4.3 2 5.4 8.6 7.7 14 6.8 2.7.3 6-6 8-2.3 4.2 6.6 19.5 0 16.5 5.8a39 39 0 00-3.8 6c-33.4-11.5-71.8-10-105.5-1.3-14 5.4-8.6 3.9-21.4-.3m9.5 10.4c-10-1.7 13.2-7.6 15.4-8.2 25.6-7.3 81.6-11.7 103 4.7-3.3 4.8-10-.8-14.5-1-35-10.3-69.8-4.1-104 4.6m104.7 9c-1.3-.1-1.4-2.1-.9-3.1 2-2.4 4.2 3.8.9 3zm-2-6c-.3 1.8 1 5.1-1.4 5.5-.7-.2-4.5-.4-5.5-1.6 0-1.5 1.8-1.3 2.5-3 .4-.6 1.5-.4 1.5.4.8-1.8.9-4 1.3-6.2.7-1.3 2.9-.2 2.5 1.2-.1 1.4-.7 2.5-.9 3.8m-8.5-3c-1 .1-2-1.6-1.2-2.4a1.2 1.2 0 011.9 1c.4-2 3 .1 2.4 1.4-1.2 5.5-4.1 5.2-2.6-.4a.7.7 0 01-.5.3m-1-4c.5-1.1 3-.4 3 .6 0 1.2-3.1.4-3-.6m4.3 1c.3-.8 1.3-.6 1.9-.2 1.6 1.8-2.1 2-2 .2m7.6 3.1c.8-3 5.6.4 0 1.6a13 13 0 010-1.6m1.3 3.7c1.7-2 6-3.2 8.3-1.9.6 1.7-.4 3.8-.9 5.6-.8 2.6-7.7-2.3-7.4-3.7m-83.6 1.1c-3.5-.5-3-6 .3-6.2a1.8 1.8 0 012-1.2c1.8.4 0 1.8-1 2.3a7.5 7.5 0 010 2c5 2.4 1 4.3-.4 2.4a1 1 0 01-1 .7m1 2.4c-.2 1.2-2.7 1-2.8-.2 0-1.4 2.7-.8 2.8.2m-8-6a1.2 1.2 0 01-1 .4c-3-2.2 1.7-4 1-.4m.2-1.3c.5-4.1 5.2-2.4 2.7 1.9-1.4.6-3-.4-2.7-2m-.4 5a5.2 5.2 0 011.4-1.1c.3-1.1 2-2.1 2.3-.6 1.8 4.6 1.2 5.4-4 6.4-5 1.2-1.2-3 .3-4.6m4.1-6.4c-1-1.1 1.4-2.3 2-1a1.3 1.3 0 01-2 1m6.9 3.5c-5.2-2.3 6.3-5.5 7.7-3.3.6 3.7-5.2 3.9-7.6 3.5zm6.1.6c6.2-4 .2-4.4-3.3-5.5 1.3-2 4-1.1 6.1-1.5 2 0 2.7.5 2.8 2.6.3 2.4 0 5.2-3 5.2-.8.2-2.6 1-2.5-.7zm5 2.5c7.7-10-7.4-10.6 3.9-11.9 5 .1 11.8-2.3 16.4-.2-3.2 3-7.6 4.5-11.2 6.8 3.2 2.3 9 5.2 1 5.3-3.5 0-7 1.2-10.4.5zm13.2-5.4c1.4-1 7.7-4 8.6-4.5 2.4 1.4 7.4 3 9.9 4.4l-9 4.7c-2.4-1.2-7-3-9.5-4.6m18.4 3a20.3 20.3 0 014.3-3.2c-.9-1.4-16.5-5.8-12-7.4 7.9 0 22.2-.6 28.5 3.1-3 1.7-6.8-1-10 .3-2 .5-2.2 3.6-2.2 5.2 0 3.2 3.5 3 5.8 3.8.4 2.2-7.2.2-8.8.4-1.4-.4-7.3.4-5.5-2.2m13.2-3.4l.6 2.6c-6.4 2.8-3.8-9.8 1.5-5.2-1 .7-2.4 1.2-2.1 2.6m.7.8c-4-4.3 11.2-2.5 9 .2-2 2-6.8 1.2-9-.2m9.2-3.9c-1 .4-2.6-.3-2.1-1.3s3.6.2 2 1.3m-79.2 4.5a1 1 0 01-2-.2 1 1 0 112 .2m-10.2 4.6c-1-.4-.7-2.7.6-2.6 1.3.4.8 2.9-.6 2.6m1 3.4c-1.7-1.5 1.4-3.5 2-5 1.3-1.8 5.6-1.5 7-.2-2.3 2.5-5 6.9-9 5.1m1 9c7.8-14 95.4-13.2 109-2.7v.1c2 6.4-14.8-.7-18-.2-7-.7-15.7-1.8-23.4-2a245 245 0 00-59.8 4.4c-2.5-.3-6.2 2.8-7.9.4m107.4 6.6c-1.8 2.7-4.4-1.5-1.6-3 1 .5 2.4-.3 1.6 3m-4.7-.5c-2.5 4.6-5.6-.9-2.7-3.1 1.8-1 3.8.1 2.7 3.1m-9.5-1c0-7.7 5.8-1.6 3 3.5-2 3-3.3-1.6-3-3.5zm-5.9-1a6.3 6.3 0 01.7-4.1c6.6-.2.2 22.3-.7 4m-6.5-.8c-.7-2.5 1.6-6.4 3.4-2.6.6 3 1.8 8-.7 11.8-3.9.1-2.4-6.4-2.6-9.1zM268 159c-.4-12 5-6.2 4.5 2.7-.3 10.8-5.2 3.8-4.5-2.7m-3 3c.4 2.4-2.1 7.6-3.8 3.6-.7-2.6-2-12 1-13.9 3.8-.3 2.8 8 2.8 10.4m-7.3-.6c.3 2.4-1 10.5-3.6 4.7-.1-3-1.6-13.3 1.4-14.6 2.7 1 1.6 6.8 2.2 9.9zm-9.8-.2c.7-2.7-.9-7.7 1.6-9.4 2.1.4 1.5 8.2 1.7 10.8.5 6.7-2.6 7.3-3.3.4a6.8 6.8 0 010-1.8m-2.5 4.1c-3 10.1-4-10.1-3.1-12.2 3.9-6.2 3.4 10.2 3.1 12.2m-10-11.3v-.3c4-6.3 4 10.7 3.2 12.7-3.8 6.6-3.5-10.4-3.3-12.4m-3.6 7.3c0 8-3.8 8.3-4.4 0-.8-10 5-11.7 4.4 0m-7.1-.9c-1.4 17.4-8.8-3.6-3-7 3.7-1 3 5 3 7m-12-.6c-.4-2.1 1-7.6 3.5-4.1a17 17 0 01.4 7.5c-1.2 6.1-4.4-.3-3.8-3.4zm-7.4-.4c-.7-2.2 1.8-5.9 3.3-2.8.5 1.1 2 7.2-1.2 8.2-2.2-.5-2.1-3.6-2.1-5.4zm-2.8 2.8c-.9 2-3.3.2-3-1.6.3-5 4.7-1.8 3 1.6M186 178.7c4.8-4 8.2-9.8 12.8-13.8 32.8 8.1 70.6 6.6 103 0 3.3-.3 4.2-2.9 6 1.2a62.7 62.7 0 0030 26.2c-9.2 19-12 38-4.5 57.7-43.6.3-117.4.3-160.9 0 5-17.8 7.2-37.6-2.6-54.7-1-1.7-1-2.2 1-3.7 5.4-4.3 10.4-8.1 15.2-12.9zm-18 9.6a1 1 0 01-1.5-.5c.8-2 2.8-2.7 3.8-4.5.8-1.8 2.9-2 4.6-2.5 5.6.4-5.7 6.4-7 7.4m11.1-11c.8-.5 1.7-.8 2.5-1.2 2 1.1-1.1 3.1-2.3 3.6-1.3 0-1-2.1-.2-2.5m-4.4-9.6a1 1 0 01.9-.6c.9-.8 2.6-.2 3.5.2 0-1 .9-1.7 1.7-2.3 2 1.2 7.9 6.4 3 6.9a3.4 3.4 0 01-.5 0 1 1 0 01-2.1.1h-.1l.3.6c-1.8 3.1-2.2-.8-2.8-2.3-1.2-.5-3.9-1-3.8-2.6m-12.2 5.6a1.5 1.5 0 011.5 0v-.1c-1-2.1 1.8-3.8 3.6-2.8a.8.8 0 01.2-.5c1.4-.9 3 1 3.8 2-1.9-3.2 1.5-1.8 3-.9 2.6.8 1.2 11-1 6.6 0 1.6-2.3 2.4-2.8.7 0 1-1.2 1.7-1.8.6.3 1.6-2.2 2.3-2.8.9a1 1 0 01-1.8.5c-.3-2.6-3.8-5-1.9-7m-4.3 39c-.9-2-2.6-3.4-3.9-5.2a7 7 0 011.3 2.3c.7.5-.3 1.3-.6.7a2.6 2.6 0 01-1-.4c-2.8-1.4-5-8.8-.5-3.8-.2-.5.2-1 .5-1.4a1.5 1.5 0 011.3.7c1.9 3.5 6.6 5.7 7.2 9.7-.8 5.4-3.4-.6-4.3-2.5m.5 12.6c-.2 1-1.4.8-2 .1-.4-1.8 2.5-2.3 2-.1m-23-19.4c.4-1.7 1.9-15 4.5-12.7.5 5.9-.8 10.6 5 15.3-2-3.7-5.9-14.8 1.5-6.8 1 1.8.2 3.6 1.7 4.8 1.3 2 4.5 4 3.7 6.6-.9.6-3.2-.5-4.2.4.8 2.8 4.6 0 5.7 2.9 3.5 5.4-3.2 2-5.5 1.7a6.3 6.3 0 01-5-4.9c-2.1 2.4-4-4.3-4.2-5.9l-.3 3c-1.9-.7-2.5-2.8-3-4.4m-.1 10.4c-1.1 2.6-4.8 8.5-3.6 1.6 1-1.4-.6-8.3 1.8-7.4 1.3 1.5 2.7 3.9 1.8 5.8m8.6-33.3c-.1 2 .1 3.9 1.8 5-.5-2.8-1.4-6.8.2-9.2 5.6 2 1.4 13 6.5 15.4 1.7.7 1.1-.5 1-2-.8-2.3 1.5-3.6 2.4-.9 5 15-1.7 11.6-10.5 4.7-3.9-2.8-5.3-8.2-5.7-12.9-.4-2 .7-4.8-.9-6.2.2-.4.2-.8.5-1 1.7-.6.5-4.3 2.7-4.5 4.2 2.3 1.5 7.7 2 11.6m18.2 20.7c-3 2.7-3.3-3.5-3.7-5.4.1-2.4-1.7-5.2-.7-7.4 3.7-.9 5.6 10 4.4 12.8m0 6.9c-.2 1.8-1.8.5-2.4-.3-1.1-1.5-4.8-2.8-3.6-5 2-.4 2.3 2.5 4.2 3a2.7 2.7 0 011.8 2.2zm-1.8 16.5c.6-2 1-6 3-6.9 1.9 1-1.8 12.7-3 7zm3.5-30c-1-.5-1.4-2-2.1-5 2.1-.2 4.6 4 2.3 5.2zm-9.3-31c3.9 2 1.2 3.7 2.8 5.6a3.8 3.8 0 012.2 4.1c-1.2 2.6 4.6 11.1 1.3 12-5.3-3-2.2-11.1-6.6-15.2.3 2.2.3 4.4 1.4 6.6.5.7-.1 2.6-1.2 1.7.2 1.3 1.5 3.5-.1 4.2-1.1.3-1.8-.5-2-1.5-1.2-4.8-4.4-7.5-7.5-11-1.7-1.3-3-7.2.5-4.4 2.1 1.7 2.6 4.6 4.3 6.6 1.6-3.4-5.8-8.8-5.2-10.9 2.3-.8 6 6.4 7.7 8-.7-2.8 1-1.9 1-3.2-.4-1.1-.1-3 1.4-2.5m-9-6.9l.1-.1c2.5.5 3 3.3 4.8 4.7.8.6.6 2.5-.6 1.7-1-1-5.6-4.8-4.3-6.3m-1.7-7.7a1.3 1.3 0 011-1.3c2.1 4.2 5.6 7.2 8 11 2.5 8.7-10.5-7.1-9-9.6m-48.7 64.3c.6-9.8 6.4-12.4 15-12.4 2.4-.7 3.6-3.8 5.5-4.1 1.4.3 3.1 3.5 2.5 5.1-2 6.7-13.2 6.2-18 10-1 .5-1.2 2-1.4 3.1-2.2 4.5-4.6 2.2-3.6-1.7m23.4-26.9c-6.3-11 4.7-19.4 11.5-26.4 2.8-5 6.2-5.7 3 1-.3 1.4-2.3 2.5-2.4 4 0 .6-.3 1.6-1 1.8-8.5 5.7-4.7 14.5-6 23-.7 1.7-2 7.3-4.6 6a4.3 4.3 0 01-1.2-5c-1.5-1.4-2.3-6 .7-3.5a4.4 4.4 0 000-1m12-6c.3 1-.1 4.7-1.7 3.2.4 1.8-2.3 4.5-3 1.9-.2-4.7 0-9.5 2.3-13.9.5-2 3-1 2.8.8-.1 2.6-1.2 5.7-.5 8M103 217.9h-.1c-5 .2 2-5.4 2.2-1.7a2 2 0 01-2.1 1.7m-.7 6.6a.8.8 0 01-1.3-.3 2.1 2.1 0 01-1.2 2l-.7-.5c-.7 1 0 3.3-1.5 3.4-1.6-.5-.6-3.1-1.2-4.2-.2-2.8 2.8-1.6 3.9-3.2 1.5-1.3 4.1 1.4 2 2.8M88 226.7c-1.8-2.5 3.3-14.6 5.4-9.4-1 1.9 2.1 15.5-2.1 8.6 4.3 10-.3 11.5-3.3.8m22 53.4a23 23 0 01-2.2 22.8c-3.5 6.3-9.4 14.3-5.1 21.5 4.2 6.3 9.2 14.3 17.7 13.5 17.9-1.3 13 7 18 2 2.8-.3 9 11 5.3 10.5.7 4.3-4 2.1-5-.4-1-1.8-2.1-5.5-5-4.3.2 1.3 1.2 2.4 2 3.4 2.6 5.2-3.8 4.5-7 3.4-2.4-1.5-4-4.5-7.1-5 6.6 11.5-8.8 3-12.3-.9-2.8-4.3-4-.2-6.4-3.9-1.9.7 1.1 5-1.6 4.3l.3-.4a.4.4 0 01-.2 0l-.2.4c-14-13.2 2.2-6.8-9.6-21.1 1-2 4-.2 5 1.2-.6-1.7-2.6-2.3-2.9-4.1-1.2-2.6-4-4.4-5.6-6.8-1.2 1.5 3.5 5.9-.3 5.6-6.4-5.5 2-20.3 3.5-27-1 1.7-1.6 3.6-3.2 4.9a2.3 2.3 0 010 .2c-.3.4-1 1-1.5.3-3.5-.3 1.8-15.2 2-18.4.3-6.8 13-10.4 16.5-11.1 1.2-1.8 2.6.5 2.6 1.9.3.9 2.3 6.8 2.3 7.4m33.7-31.4a50.8 50.8 0 01-29.4 15.5c-2 .7-14.2 6.3-15.3 6.2-3 1-6.7 1.4-9 3.8-4.6 5.8-4.2 14.1-6.6 20.9-3.2 13.9-16.3 23-29.5 26.3-1.2 1.9.1 15-3.8 8.6-1 4.4 1.5 9.9 2.9 14 1.6.4 2 2.4 3.1 3.4.8.7.6 1.2 0 2 5.2 1.3 10.6 1 15.6 2.2 3-2.6 5.4.4 6.6 3.1 1.6 2.1 5 3 4.7 6-2 2.3-8 1.1-8.2-2.3-1-2.5-4.4-3.8-6.9-3 3 2.5 6.2 5.9.3 7.1-1.8-.7-2.9-3-4.4-4.3-2.4-.9.1 4-2.2 4-2.7-.4-7.4.4-8.4-3 .2-2.2-2.2-4.6-4.4-4-4 .4-2.9-6.5-5.5-8.2-1.6-.6-.5 1.8-.7 2.6-.5 3.2-3.8 1.1-3.2-1.4-.2-1.8 1.2-4.3-.2-5.7a2.7 2.7 0 01-1 2.5.8.8 0 010 .4 2.7 2.7 0 01-1.5 1.9 2.1 2.1 0 01-.3-2.6c-1-1.9.9-4 1.2-5.9.9-2.4.7-6.2 3.6-7.3-6.6-10.1-4.6-15.7 6.2-19.4a7.3 7.3 0 01.6-.5c-2.7-1.2-.7-10.2-1.1-13.3-1.1-6.3.4-12.8 1.4-19.2l-.8 1.4-.2-.3C20.2 304-12.1 283.5 9.7 250c7.6-15.9 49.3-50.5 22.7-64.3-3-.4-6.5-.2-7.5 3.1 4.4-1.6 3.6 1.9-.2 2.1-2.7 4.6-.3 11.5-4.6 15.1-.5.8-.7 2.3-1.8 2.5a2.6 2.6 0 01-2 1.3c-1-.6-.3-2 .5-2.5 2.7-5.2 2.8-10.8 3.9-16.3-2.1 1.6-1.6 4.3-2.7 6.3-3.2-.7-1.1-10.8 2-11.5-3.5 1-4.9 5.9-5.2 9l.2.2c1.7 15.8-3.7 7.2-3.7-2-2 5 1.4 10.6-.3 15.4 1 2-2.5 3.5-2.8 1.5 0-3.7-2.2-7.2-2.2-10.9-.8-9.2 7.5-18.6 17.1-16.4 2-.2-.8-1.6-1.6-1.6-3.1-1.5-6 2.6-9 1.5 2.3-7.9 18.4-6 11.3-4.3 57 8.9-6.8 59-14.5 84.5-6 16.4 11.5 25.8 24.3 16.9 3.4-1.1 12.5-11.9 15.4-7.9 4.7-11.3 19.4-16.3 28.4-22.8a140 140 0 0011-9.2c.4-.8 1.3-1.5 2-1 .8-1 .5.8 1 .8a19.7 19.7 0 003.9-2.2c1.9-2.4 4.5-4.6 5.5-7.4a2.8 2.8 0 013.2-1.7c.8.5 0 2.1.7 2.8 3.4-22.7-.9-10.8 14.2-23.5a5.3 5.3 0 002-4.6c-1-3.2 3.9-8 5.6-10.7 4.5-3 6.5-4.5 6-10.2a6.8 6.8 0 011-4.1c.6-1.2.6-1.2.3-2-.7-3-1.9-6.9-.3-10 3.8-5.3 5-12.5.6-17.8-.6-.9-1-3-2.3-2.7-1.5.7-3.9-.3-5 1.5-3.1 1.1-4.3 8-6.7 6-1.7-2-1 4.6-7.8-.7 1.1 1 2.6 1.7 3 3.2 1 .4 2.2 1 3.4.5s2 1 2.8 0c2.3-2.9 2.6-5 6.1-6.6 5.6-3.9 5.9 2.4 4.3 6.5-.7 2.6-3.1 4-4.8 5.9-1 1.6-2.3 1-3.6 1.5-1.3 2-3 4-5.4 4.5l-1.8-1.2c-.3 2 3.2 3.8 1 5.7-.6 2.1-2.3 3.6-3.2 5.6-1.1 3-.6 7.6-5.5 5.3-1.8-1-2 2.2-3.6 2.3-10.2 2.6-2.2 8-6.8 8.8a4.2 4.2 0 01-2.4 2.1 3.6 3.6 0 01-1.6 1.5c-7.5-5-1.5-6-4.2-8.2-1.5-.9-4.1-1-4.9-2.7 0-.8.8-1 1.4-1.2 3.7 0 4.8-5 8-5.4 4.4 1.2 6.9-3 10-4.9-3.2-1.6-5.5-7.6-9.8-6.3-4.1 3-12.8 11.6-16.7 4.4-8-7.7 4-5.7 1.6-11.1-1.5-.4-2 4.2-4.5 1.4-2.1-2.2 1-4 3.2-4.7 3.6-1 6.2-3.6 9-5.8v.3c1.8-2.2 5.3-.5 3.7 2.3-1 3 3.1 3.5 5.3 3.9 3.7-2.4 7.6-5.2 11.8-6 1.8-5.1-6.6-.5-9-.7-13-2.3-10.3-7.2.5-10.2 4.7-.8 11.3-7 16.2-3.8-1.1 2.8-4.7 5.6-5.3 8.5 5.6-3 10-23 17-11.2 1.5 2.3-.3 5.4 1.4 7.6.9-.4.9-2 2-2.3 2.5 4.8 2.4-6.4 8.4 5.2 1.6-1.6 2.5.3 3.1 1.6-.7 1.1 0 2.5-1.4 3.2 6.4 3.2-2 23.5-4.5 18.3-3 1.3 2.3 7.5-.8 10-2.8 2.6 4.2 8.3 0 13.7-1 2.7-2.2 7.5-4.5 8.2-2 7 1 15.7-3.5 22.4-.2 1.6-2 2.2-1.2 4.3a1.1 1.1 0 01-.2 1.2c-.6.8-.2 2-.6 3 .6-.6 1.6-.8 2-1.8s1.3-1.6 2-.6c4.2 4.4 10.6 5.7 15.2 9 6.1-.3.1 6.8-1.3 9.4m22 2.5c-2.5 4.8-.7 13.5-6.9 15-1.3 1.2-2.4 2.9-4.3 1.8-.4-1.2 4.4-8.7 1.2-7.4-1 .8-1.4 3.6-3 3-.5-.8.3-1.4.2-2.2-2.2 4.2-6.4 3-2.1-1-4 3.8-1.5-4-1.7-5.8l-1 .6c-5-.3 1.7-15.4 2.9-6.5 3 1.2.5-11.6.5-13.7-.5 1-1 3-2.6 2-1.7.4-3.4-1-4.7-2-4-2-9-2.5-12.1-6-1.8-2-.3-3.2.9-4.9.8-1.7 1.7-3.6 3.5-4.4.6-1 1-5.5 3-3.8 1 1.9 3.8 1 4.7 3.2 4.7 1 8.3 5.3 11.6 8.5 2 2.1 8.5 3.6 6 7.1l-1-.3c4.7 3.4 2.5 9.7 3.6 14.6.4.9 1.6 1 1.3 2.2m.5-11.8c-1-1.8-.1-4.8-1.3-6.7-3-2.7 1.7-10.1.6-14 .6-1.5-3.9-9.6.5-7.1 1.5-4.5-2.6-9 .5-15.2 12.5 10.7 4.4 68.3 0 43zm.6 41.2l.1-5.8H196c-1.3 1.7-1 4.4 0 6.6h-.6c-2-2-5.3-2.6-7 0l-21.6-.1v-.7m.1 1.8h21v.2c-2.2 1-2 4-2 6.3h-18.2c-.4-2.4-.6-4.6-.8-6.5m1 7.6l18-.1a4.4 4.4 0 001 2c-.6 2.2 1.4 4 3.4 4.6H169l-1.2-6.5m1.5 7.6l20.9-.1c-1 2-1.8 4.9.4 6a2.5 2.5 0 00.2.6l-19.7-.1a56.5 56.5 0 01-1.8-6.4m4.7 12.6l-2.4-5 20-.1c1.4.8 3.2 2.1 5 1.6 1.7 1.2 3.8-.1 4.8-1.7h2.3c1.4 2.2 3.6 4.4 6.2 2.4a5.1 5.1 0 004.5-2.5l24.6-.1a3.2 3.2 0 00-1.1 2.7c-1.4.9-1.5 2.8-1.4 4.4l-61.6-.3-.8-1.4m6.2 9a38.5 38.5 0 01-4.7-6.5l60.9-.3a3.7 3.7 0 00.7 2.4c-.6 2.9 3 5.2 5.5 4.2l-.5.5-62-.4zm8 7.5a54.3 54.3 0 01-7-6.5l60.5-.3c-1.6 1.7-3.2 5-1 7v.1l-52.4-.3m67.5 34.3c-.3.6-1.7.8-2.6.6l-2.4-3.9h8.1l-3.2 3.3m8.5-8.5l-4.9 4.8h-9c-1.8-3-5.8-5.5-8.5-7.1h25l-2.6 2.2m13.6-9.5c-4 2.2-7.8 4.3-10.4 6.8-19.8 0-23 2-42.5-7 17.6-.2 35.9-.2 53.4 0l-.5.2m19-7.7a178 178 0 00-17.4 6.9h-56c-6.8-2.6-12.5-4.5-19.2-7 30.7-.2 62.2-.2 92.9 0l-.3.1m18.7-6.9c-6.4 2.6-11.5 5.5-18 6.1-24.5.2-49.5.2-74 .1-13.4-.2-22.2 2-33.9-6.8l51-.2c.6 2 3.4 3.7 5.6 3.5 2.6 1.8 5.4-1 6-3.6h1.7c1.2 2.2 4.3 5 7 3.3 2.1.5 5-1 5.5-3.2l50.5.2-1.3.6m11.7-6.2c-9.4 7.3-19 4-29.7 4.8l-31.1.1a3 3 0 000-.5c1.9-2 .9-4.9-1.1-6.6 21.5 0 43 .2 64.4.3a96 96 0 01-2.5 2m4.9-4.2l-1.2 1.2-66 .2a12.5 12.5 0 00-1.1-.9c3.1-.3 7.4-2.7 6.2-6.2l66.9.4a37.6 37.6 0 01-4.8 5.3m6.1-8.3l-.8 1.9-67.6.3a2.8 2.8 0 00-.5-.6 5.5 5.5 0 00-4.2-5.9 2.5 2.5 0 00-.7-.6c10.9-.5 22.3.8 32.7.1h4.3c1.1.8 2.9 1.6 4.2.5a3 3 0 002-.5l32 .2a41.3 41.3 0 01-1.4 4.6m2.6-10.3l-1 4.5-31 .2a6.2 6.2 0 002-2.6c1.4-.8 1.5-2.5 1.3-4.1l29 .1-.3 2m.4-3H312a25.5 25.5 0 00-2.1-3.6 6.5 6.5 0 004.4-3l27.5.1a59 59 0 01-.4 6.5m16.2-62.2c-1.5 0-2.4-.8-3.8-1.6 0 3-3.7 5-3 8.3 1.2-.2 1.1-2 2.1-2.5 1.6-.3 1 1.5.7 2.4-1.2 1.6-.2 4.6-2 5.3 2.6 6.4 6.4 12.1 4.2 19.5l-.6-.4a1.3 1.3 0 01-1 0c.6 1.3.7 4.3-1.4 3.2-2-.7-2.6-3-4.5-3.7 2.4 2.3 2.9 10.8-2.3 6.8a55.8 55.8 0 01-6-33.8c2.8-5.8 5.8-14.6 11.7-17.6 3.7-3.7 16.1 17.4 6 14.2m71.6 82.2c-.4 3.1-5.8 9.9-9 5.8-.3 1.6-.3 8.8-3.2 5.3-.8 3.2-8.2 9.4-5.5 12.7 2.8 1.2-1 7-2.3 3.1 0 1.5-1.7 2.6-2.5 1-.9-1.2-.4-4-2-4.3-.8.4-.7 2.3-.5 3.1 1.9 4.5-5.4 8.4-3 1.7-3.6.4-4.7 5.6-9 5.8-4 1-7 .3-4.3-4.2-3.7 4.7-22.7 7.5-9.6-.8-3.7-.2-5.8 1.5-7.7 3.6-.7 1-4 2.3-3.4-.1 2.3-9.3 14.1-3 20.2-7.5 3.6-3 9.4-.9 11.8-5.4 3.8-6.2 12-10.6 11.2-18.8-3.7-13.3-15.4-26.5-9.6-41 .7-3.4 2-6.8 5.5-3.7 4.2 3.6 12.7 3.5 13.4 10.2 3.8 5.3 3.1 12.5 5.1 18.3.5 5.3 4.3 10.2 4.4 15.1m80-49.8a.7.7 0 01-.2.5c-1.5 25.6-43.4 20.8-50.9 1 8 17.6-3.5 29.5 11.5 44.8 1.3-3.8 3.3.5 2.8 2.6h.1c-.6 8.4-1.7 18.6 5.8 23.8-2.6 1.9 2 3.2 1 5.5-.8 2.5-1.8 6.8-5.2 5.8-1.8-2.2-4.2-3.3-6.8-4.6 1.3 2.7-6.7 9.7-9.2 10.2-1.4 1-2.3 3-3.8 4-.7 1-1.6-.5-2.2.1-5.3 5.2-19.8 1.3-8.4-5.6-3-1.6-7.2 2.4-8.5 5.6-.9 2.1-5 2.4-6.8 1.4-.6-.6-1.6.3-2.3-.1-1.6-3 .4-8 4.4-7.5 1.8.2 2.8-1.5 3.8-2.7 3-4.1 8.5-.5 12.6-1 25.4-5 16.2-33.6-3.6-40-17-3.8-17.3-14.6-20.2-29.5-.2-.4-2.4-5.3-3-5.3a65.5 65.5 0 01-7.9-3c-14.9-7.3-16.2-4.6-34.2-11-8.7-4.1-12.3-9.7-18.8-15.8-1-3.8.6-6.7 3.7-8.8 3.6-6.8 9 0 11-4 0-7.3 3.9-6.5 6.3-.6 1.5.8 1.7 3.1 3.2 3.6.4.1.6.5 1 .7a5.9 5.9 0 00-.5 3.1c2.6-7.4 11.6-8.8 18.5-8.9 2.4-.6 6 2.7 8.5 3.6 5.1 1.7 8.5 5.4 13.2 7.7 13 5.6 28 12 37.6 23.4a34 34 0 0021.3 9.9c20.5 4.7 23.4-12.2 12.9-26.3-10-18.6-43-43.1-27.5-65.6-.3-.3.7-4 2-3.9 11.8-10.5 21.2 9.4 14.7 19-.3.8-1.1 2-2 1-2.7-5.3 1.3-13-4.3-16.5 1.9.8 3.7 16 .5 13.5-1.3-2.5-2.7-5.5-2.3-8.4.3-.4-.1-1-.4-1.5-.5-2.6-5-5.2-6.7-2.3 1.3-2.1 3.5 2.4 3.5 3.6-17.9 27.8 36.3 49.7 35.7 78.4"/><path class="a" d="M195.7 207.7c0 2.8 2.7 4.7 4.5 5.5-7.2 6.4 6.5 16.8 11.5 8.8 4 7.2 14.9.6 11.7-6.9.5-.3 2.4-.5 2.8-1.7 4-5.7 0-17-8.1-11.7 0-1.5 1.9-5.5-.6-7.4-4.7-4.1-13.2-2.2-13.8 4.5-4.6-1-9 4.1-8 9m15.6 8.2c.2 15.7-20.5 1-6.4-3.3 5.7-2 .3 5 .4 6.7 1.2-1.4 4.6-6.9 6-3.4m.6-3c-7.4 0-1.7-10.3 3.2-6.3 2.2 2.2.2 6.2-3.2 6.2m10.4 4.9c-5.8 18.7-16.1-12.6-4.8.4-2.1-5 1-8.7 4.8-.4m-4.7-14c10.9-8.7 11.2 16.3.7 7.5-2.3-1.6 1-3.2 2.6-3.6 2-.7-7.8.7-3.3-3.9m-20.2 1.6c.6-7 8.6-4.7 9.4-2.2-7.5-13.3 19-11.3 7.7.8-3.3.4-3-3.2-2.8-5.4-1.5 5.6-3.5 8.9-9.2 7.4 10.2 6.4-6.6 9-5.1-.6M239.1 209a5.1 5.1 0 006.1 5.2c-2 2.2-3.1 7.8.4 8.3 6.9 6.9 11-2.3 10.8-7.5 0 14 20.6 5.6 11.2-3.6 6-4-.2-18.6-7.4-11.3 1.2-11-17.6-9-13.5 1.8-4.7-3.2-8.3 3-7.6 7.1m14.4 12.7c-5.7 5-13.2-5.7-3.7-8.6 2 .8 0 3.5.1 5 3.4-6.3 5.9-.7 3.6 3.6m2-8.1c-6 1.3-6.9-8-1.3-8.1 4.5-.4 5.6 7.2 1.3 8m13 1.9c-1.6 14.5-18.2-4.5-6.3-.4-7.3-7 5.3-4.5 6.2.4m-9.6-11c4-9.4 13.3-1.5 8.2 5.4-4 2.3-10.5-1-3.6-4-1.7.1-5 1.8-4.6-1.4m-10.9-6.2c3.3-9.7 16.7 1.2 8.2 6-2.3-.3-2.7-2-2.8-4-1 7.5-5.9 3.5-5.4-2m-7 8.7c1.2-10 13.1 2.1 5.5 1 7 4.1-7.6 8.6-5.5-1M281.6 207c0 3 3 5.7 5.7 6.1-6 7 7 15.7 10.7 7.6 5.6 6.3 16-3.3 9-9.4a4.9 4.9 0 005.3-5.8c-4.1-12.6-11 1.3-9-9.1-2.3-8.8-16.8-3.8-12.2 4.8-4.2-3.4-10.3.9-9.5 5.7m15.3 12c-1.4 7.6-13.8.6-7.6-5.7 2.7-3.8 5-1.6 4 2 2.6-4.7 4.3.8 3.6 3.6m.9-7.4c-5.3 1-5.4-7.7-.3-7.6 5-.5 5.2 7.8.3 7.6m5.1-7.8c7.2-8.5 12 10.8.9 5.2 1.4-4-1.3-.9-.9-5.2m.2 11.2c-3-10 8.8 1.2 3 4.9-6.9 6.8-11.8-10.6-3-4.9M292 197c6.7-12.7 14.3 9 5.6 3.4 0-3.7-4.5 9.8-5.6-3.4m-9 8.7c1-8.3 13.4-1.5 7.3 1.9 5.6 5.1-9.4 4.9-7.2-1.9"/></svg>