<?xml version="1.0" encoding="UTF-8"?> <svg xmlns="http://www.w3.org/2000/svg" id="Livello_1" width="109" height="20" data-name="Livello 1"><defs><style>.cls-1{fill:#fff}</style></defs><path d="M17.3 12.6a6.8 6.8 0 0 1-2.1 5.4q-2.2 1.9-6.3 1.9C6 19.9 4 19.2 2.6 18a6.8 6.8 0 0 1-2.1-5.4V.6h4.9v11.8a4.4 4.4 0 0 0 .8 2.9 3.3 3.3 0 0 0 2.7 1 3.5 3.5 0 0 0 2.7-1 4.3 4.3 0 0 0 .8-3V.7h4.9zM39 19.5h-4.7l-8-13v13H22V.5h5.8l6.9 10.9V.6H39zM54 19.5H43V16h3.1V4H43V.6h11v3.3h-3v12.2h3.1zM73.7 6.5a7 7 0 0 1-.5 2.5 5.4 5.4 0 0 1-1.2 2 7.6 7.6 0 0 1-2.5 1.7 9.1 9.1 0 0 1-3.5.6h-3v6.2h-5V.5h8a12.6 12.6 0 0 1 3 .4 7.5 7.5 0 0 1 2.3.9 5 5 0 0 1 1.7 2 6 6 0 0 1 .7 2.7zm-5 .1a2.3 2.3 0 0 0-.5-1.3 2.4 2.4 0 0 0-1-.9 4.6 4.6 0 0 0-1.4-.3H63v5.6h1.4a11.4 11.4 0 0 0 2-.1 3 3 0 0 0 1.3-.6 2.4 2.4 0 0 0 .7-1 4 4 0 0 0 .2-1.4zM85.5 18l-1 .7a6.5 6.5 0 0 1-1 .6 5.9 5.9 0 0 1-1.3.4 7.8 7.8 0 0 1-1.6.2 4.8 4.8 0 0 1-3.4-1.3 4.2 4.2 0 0 1-1.4-3.2 4.3 4.3 0 0 1 .7-2.5 4.6 4.6 0 0 1 2-1.6 11.2 11.2 0 0 1 3.2-.8l3.9-.4V10a1.6 1.6 0 0 0-1-1.6 7 7 0 0 0-2.9-.5 8.4 8.4 0 0 0-2.4.4l-1.8.6H77V5.5l2.4-.4a20 20 0 0 1 3.2-.3c2.6 0 4.5.4 5.7 1.2A4.3 4.3 0 0 1 90 9.8v9.7h-4.5zm0-2.2v-3l-2 .2a9.5 9.5 0 0 0-1.6.3 2.2 2.2 0 0 0-1 .6 1.6 1.6 0 0 0-.5 1.1 3 3 0 0 0 .1.7 1.1 1.1 0 0 0 .4.6 1.9 1.9 0 0 0 .7.3 4.9 4.9 0 0 0 1.3.1 3.7 3.7 0 0 0 1.4-.2 4.4 4.4 0 0 0 1.2-.8zM108.6 5.2L103 19.5h-5.2L92.5 5.2h4.8l3.3 9.8 3.3-9.8z" class="cls-1"></path></svg> 