<?xml version="1.0" encoding="UTF-8"?> <svg xmlns="http://www.w3.org/2000/svg" id="Livello_1" data-name="Livello 1" width="100px" height="100px" viewBox="0 0 100 100"><defs><style>.cls-1{fill:#eee}</style></defs><path d="M19.4 51.7A30.6 30.6 0 1 0 50 21.1a30.6 30.6 0 0 0-30.6 30.6zm57.8 0A27.2 27.2 0 1 1 50 24.5a27.2 27.2 0 0 1 27.2 27.2z" class="cls-1"></path><path d="M48.3 29.6v1.7a1.7 1.7 0 1 0 3.4 0v-1.7a1.7 1.7 0 0 0-3.4 0zM40.4 31.7a1.7 1.7 0 0 0-3 1.7l.9 1.5a1.7 1.7 0 0 0 1.5.8 1.6 1.6 0 0 0 .8-.2 1.7 1.7 0 0 0 .6-2.3zM33.2 40l-1.5-.8a1.7 1.7 0 1 0-1.7 3l1.5.8a1.6 1.6 0 0 0 .8.2 1.7 1.7 0 0 0 .9-3.2zM31.3 51.7a1.7 1.7 0 0 0-1.7-1.7h-1.7a1.7 1.7 0 0 0 0 3.4h1.7a1.7 1.7 0 0 0 1.7-1.7zM31.5 60.4l-1.5.9a1.7 1.7 0 0 0-.6 2.3 1.7 1.7 0 0 0 1.5.9 1.6 1.6 0 0 0 .8-.3l1.5-.8a1.7 1.7 0 0 0-1.7-3zM40.6 67.9a1.7 1.7 0 0 0-2.3.6l-.8 1.5a1.7 1.7 0 0 0 .6 2.3 1.7 1.7 0 0 0 .8.3 1.7 1.7 0 0 0 1.5-.9l.9-1.5a1.7 1.7 0 0 0-.6-2.3zM50 70.4a1.7 1.7 0 0 0-1.7 1.7v1.7a1.7 1.7 0 0 0 1.7 1.7 1.7 1.7 0 0 0 1.7-1.7v-1.7a1.7 1.7 0 0 0-1.7-1.7zM61.7 68.5a1.7 1.7 0 0 0-3 1.7l.8 1.5a1.7 1.7 0 0 0 1.5.8 1.8 1.8 0 0 0 .8-.2 1.7 1.7 0 0 0 .7-2.3zM66.8 63.4l1.5.8a1.6 1.6 0 0 0 .8.3 1.7 1.7 0 0 0 .9-3.2l-1.5-.9a1.7 1.7 0 0 0-1.7 3zM68.7 51.7a1.7 1.7 0 0 0 1.7 1.7h1.7a1.7 1.7 0 0 0 0-3.4h-1.7a1.7 1.7 0 0 0-1.7 1.7zM67.7 43.2a1.6 1.6 0 0 0 .8-.2L70 42a1.7 1.7 0 1 0-1.7-3l-1.5.9a1.7 1.7 0 0 0 .9 3.2zM59.4 35.5a1.6 1.6 0 0 0 .8.3 1.7 1.7 0 0 0 1.5-.9l.8-1.5a1.7 1.7 0 0 0-3-1.7l-.8 1.5a1.7 1.7 0 0 0 .6 2.3zM60 57.7a1.7 1.7 0 0 0-.6-2.4l-7.7-4.6V38.1a1.7 1.7 0 0 0-3.4 0v13.6a1.4 1.4 0 0 0 0 .2 2.3 2.3 0 0 0 .1.4 1.8 1.8 0 0 0 .1.2 1.6 1.6 0 0 0 .2.3 1.4 1.4 0 0 0 .3.2l.1.1 8.5 5.1a1.6 1.6 0 0 0 1 .3 1.7 1.7 0 0 0 1.4-.8z" class="cls-1"></path><path d="M90.5 50.8a1.4 1.4 0 0 0-.2-.3 1.1 1.1 0 0 0-.2-.1 1.6 1.6 0 0 0-2 0 .9.9 0 0 0-.2.1 2.1 2.1 0 0 0-.2.3 1.7 1.7 0 0 0-.3 1 37.4 37.4 0 1 1-40.7-37.3l-1.5 2.3a1.7 1.7 0 0 0 .4 2.3 1.6 1.6 0 0 0 1 .3 1.7 1.7 0 0 0 1.4-.8l3.4-5v-.2a1.2 1.2 0 0 0 .2-.3v-.3-.2-.2a1.9 1.9 0 0 0 0-.3 1.3 1.3 0 0 0-.1-.3 1.2 1.2 0 0 0-.2-.2.6.6 0 0 0-.1-.2l-.2-.1v-.1l-5.2-3.4a1.7 1.7 0 0 0-1.9 2.8l1 .6a40.8 40.8 0 1 0 46 40.5 1.7 1.7 0 0 0-.4-.9zM83.8 33.9a1.7 1.7 0 1 0-1.4-.9 1.7 1.7 0 0 0 1.4.9zM87.8 43.3a1.6 1.6 0 0 0 .4 0 1.7 1.7 0 0 0-.9-3.4 1.7 1.7 0 0 0 .5 3.4zM77.6 25.8a1.7 1.7 0 0 0 1.2-.5 1.7 1.7 0 1 0-2.4 0 1.7 1.7 0 0 0 1.2.5zM59.7 15.6a2.1 2.1 0 0 0 .4 0 1.7 1.7 0 0 0 1.7-1.2 1.7 1.7 0 0 0-1.2-2.1 1.7 1.7 0 0 0-.9 3.3zM68.7 19.3a1.6 1.6 0 0 0 .8.3 1.7 1.7 0 0 0 .9-3.2 1.7 1.7 0 0 0-1.7 3z" class="cls-1"></path></svg> 