<?xml version="1.0" encoding="UTF-8"?> <svg xmlns="http://www.w3.org/2000/svg" id="Livello_1" data-name="Livello 1" width="100px" height="100px" viewBox="0 0 100 100"><defs><style>.cls-1{fill:#eee}</style></defs><path d="M19.4 41.4a2.7 2.7 0 0 0 .5 0 1.7 1.7 0 1 0-.5 0zM19.4 58.7A1.7 1.7 0 0 0 20 62a1.7 1.7 0 0 0 1.6-2.2 1.7 1.7 0 0 0-2-1.2zM18.5 51.8a1.7 1.7 0 1 0-1.7-1.8 1.7 1.7 0 0 0 1.7 1.8zM30.1 23.6a1.8 1.8 0 0 0 1.3-.5 1.7 1.7 0 1 0-2.5-2.5 1.7 1.7 0 0 0 0 2.5 1.7 1.7 0 0 0 1.3.5zM23 31.6a1.7 1.7 0 0 0 .9.3 1.8 1.8 0 0 0 1.4-.9 1.7 1.7 0 1 0-2.3.6zM38.4 17.2a1.8 1.8 0 0 0 .9-.2 1.7 1.7 0 1 0-2.4-.6 1.7 1.7 0 0 0 1.5.8zM77.4 17a1.6 1.6 0 0 0 .8.2 1.7 1.7 0 0 0 1.5-1 1.7 1.7 0 1 0-2.3.7zM85.3 23a1.8 1.8 0 0 0 1.2.5 1.8 1.8 0 0 0 1.2-3 1.7 1.7 0 0 0-2.4 0 1.7 1.7 0 0 0 0 2.5zM48 13.2a1 1 0 0 0 .4 0 1.7 1.7 0 0 0 1.3-2.1 1.7 1.7 0 1 0-3.4.9 1.7 1.7 0 0 0 1.7 1.2zM68.2 13.1a1 1 0 0 0 .4.1 1.7 1.7 0 0 0 1.7-1.3A1.7 1.7 0 0 0 67 11a1.7 1.7 0 0 0 1.2 2.1zM29 77a1.7 1.7 0 1 0 2.4 0 1.7 1.7 0 0 0-2.4 0zM58.3 11.9a1.7 1.7 0 1 0-1.7-1.8 1.7 1.7 0 0 0 1.7 1.8zM93.9 68.3a1.7 1.7 0 1 0-1.8 3 1.7 1.7 0 0 0 .9.3 1.8 1.8 0 0 0 1.5-1 1.7 1.7 0 0 0-.6-2.3zM92.9 31.7a1.7 1.7 0 0 0 .8-.2 1.7 1.7 0 0 0 .7-2.4 1.8 1.8 0 0 0-2.4-.6 1.7 1.7 0 0 0 .9 3.2zM96.9 41.3a1.7 1.7 0 0 0 1.7-2.2 1.7 1.7 0 1 0-1.7 2.2zM97.4 58.5a1.7 1.7 0 1 0-.9 3.4 2.2 2.2 0 0 0 .4 0 1.7 1.7 0 0 0 .5-3.4zM85.5 76.9a1.7 1.7 0 0 0 0 2.4 1.7 1.7 0 0 0 1.2.5 1.7 1.7 0 0 0 1.2-3 1.7 1.7 0 0 0-2.5 0zM98.3 48.1A1.7 1.7 0 1 0 100 50a1.7 1.7 0 0 0-1.7-1.8zM48.5 86.8a1.7 1.7 0 1 0-.9 3.4 2.6 2.6 0 0 0 .5 0 1.7 1.7 0 0 0 .4-3.4zM68.4 86.8a1.7 1.7 0 0 0-1.2 2.2 1.7 1.7 0 0 0 1.6 1.3 1.2 1.2 0 0 0 .5 0 1.7 1.7 0 0 0-.9-3.4zM58.5 88.1h-.1a1.7 1.7 0 0 0 0 3.5h.2a1.7 1.7 0 0 0 0-3.5zM39.3 83a1.7 1.7 0 0 0-2.3.6 1.7 1.7 0 0 0 .6 2.4 1.8 1.8 0 0 0 .9.3 1.7 1.7 0 0 0 .8-3.3zM77.6 83a1.7 1.7 0 0 0-.6 2.3 1.7 1.7 0 0 0 1.5.9 1.6 1.6 0 0 0 .9-.3 1.7 1.7 0 1 0-1.8-3z" class="cls-1"></path><path d="M58.4 18.8a31.1 31.1 0 0 0-27.8 45.3l-14.3 8.2-4.8-2.3a1.7 1.7 0 0 0-1.6 0l-9 5.2a1.8 1.8 0 0 0-.9 1.6 1.7 1.7 0 0 0 1 1.5l4.6 2.2-.4 5.1a1.8 1.8 0 0 0 .8 1.6 1.7 1.7 0 0 0 1.8 0l9-5.2a1.7 1.7 0 0 0 .9-1.4l.3-5.3 6.5-3.8h.2l.1-.1 7.5-4.3a31.2 31.2 0 1 0 26-48.3zM14.3 79.5l-5.4 3 .2-3A1.7 1.7 0 0 0 8 78l-2.7-1.3 5.4-3.1 3.7 1.8zm44-1.8a27.7 27.7 0 0 1-23-12.4l6-3.4a21.1 21.1 0 1 0-1.7-3l-6 3.4a27.7 27.7 0 1 1 24.8 15.4zM60 49.1a1.7 1.7 0 0 0-2.4-.6l-5.8 3.4a7 7 0 0 1-.2-1.9 7 7 0 1 1 2 4.8l5.8-3.3a1.8 1.8 0 0 0 .6-2.4zm-1.5 11.3a10.4 10.4 0 1 0-9.7-6.8l-6.1 3.5a17.5 17.5 0 1 1 1.7 3l6-3.5a10.4 10.4 0 0 0 8 3.8z" class="cls-1"></path></svg> 