<?xml version="1.0" encoding="UTF-8"?> <svg xmlns="http://www.w3.org/2000/svg" id="Livello_1" width="218" height="40" data-name="Livello 1"><defs><style>.cls-1{fill:#fff}</style></defs><path d="M34.4 24.8q0 7-4.2 10.8t-12.6 3.7q-8.3 0-12.6-3.7C2.2 33 .8 29.6.8 24.9V.7h9.8v23.6c0 2.6.5 4.6 1.6 5.9s3 1.9 5.4 1.9 4.2-.6 5.3-1.9 1.7-3.2 1.7-5.9V.7h9.8zM78 38.5h-9.5l-16-26v26h-9V.8h11.7L69 22.4V.7h9zM108 38.5H85.9v-6.7H92V7.4h-6.2V.7H108v6.7h-6.2v24.4h6.2zM147.2 12.7a14.4 14.4 0 0 1-1 5 11 11 0 0 1-2.5 4 15.5 15.5 0 0 1-5 3.4 18.3 18.3 0 0 1-6.9 1.1h-6v12.3H116V.7h16a25 25 0 0 1 6 .6 14.2 14.2 0 0 1 4.5 1.9A10 10 0 0 1 146 7a12 12 0 0 1 1.2 5.7zm-10.1.2a4.5 4.5 0 0 0-.9-2.8 4.7 4.7 0 0 0-2-1.6 9 9 0 0 0-3-.7h-5.5V19h2.8a23.1 23.1 0 0 0 4-.3 5.9 5.9 0 0 0 2.8-1.3 4.7 4.7 0 0 0 1.3-1.9 8 8 0 0 0 .5-2.7zM170.8 35.5l-1.8 1.3a11.3 11.3 0 0 1-4.8 2.2 16.4 16.4 0 0 1-3.2.3 9.7 9.7 0 0 1-6.8-2.5 8.3 8.3 0 0 1-2.8-6.4 8.7 8.7 0 0 1 1.4-5.1 9.3 9.3 0 0 1 4-3.2 22.3 22.3 0 0 1 6.3-1.6q3.8-.5 7.8-.7v-.2a3.3 3.3 0 0 0-1.9-3.2 14 14 0 0 0-5.7-1 16.3 16.3 0 0 0-4.8.9l-3.7 1.2h-.8v-6.9l4.7-.9a42.4 42.4 0 0 1 6.5-.5q7.8 0 11.3 2.4t3.4 7.5v19.4h-9zm0-4.4v-6l-4 .5a18.5 18.5 0 0 0-3.2.6 4.4 4.4 0 0 0-2.1 1.2 3.2 3.2 0 0 0-.8 2.2 5.8 5.8 0 0 0 .2 1.4 2.1 2.1 0 0 0 .8 1.1 3.7 3.7 0 0 0 1.4.8 9.8 9.8 0 0 0 2.5.2 7.6 7.6 0 0 0 2.8-.6 8.6 8.6 0 0 0 2.4-1.4zM217 10l-11 28.5h-10.3l-11-28.5h9.7l6.6 19.6 6.6-19.6z" class="cls-1"></path></svg> 