<?xml version="1.0" encoding="UTF-8"?> <svg xmlns="http://www.w3.org/2000/svg" id="Livello_1" data-name="Livello 1" width="100px" height="100px" viewBox="0 0 100 100"><defs><style>.cls-1{fill:#eee}</style></defs><path d="M19 27.4l32 32a1.7 1.7 0 0 0 .3.3L64 66a1.3 1.3 0 0 0 .7.2 1.5 1.5 0 0 0 1-.5A1.5 1.5 0 0 0 66 64l-6.3-12.7a1.2 1.2 0 0 0-.3-.4l-32-32-3.2-3.1a6.2 6.2 0 0 0-8.5 0 6 6 0 0 0 0 8.4zm7.4-5.3L56.2 52 52 56.2 22.1 26.4zm28 35.8l3.5-3.4 3.4 6.8zM18 17.9A3 3 0 0 1 20 17a3 3 0 0 1 2.1.9l2.1 2.1-4.2 4.3-2.1-2.2a3 3 0 0 1 0-4.2z" class="cls-1"></path><path d="M86 12.5H72.5A1.5 1.5 0 0 0 71 14v57H14a1.5 1.5 0 0 0-1.5 1.5V86a1.5 1.5 0 0 0 1.5 1.5h72a1.5 1.5 0 0 0 1.5-1.5V14a1.5 1.5 0 0 0-1.5-1.5zm-12 3h10.5V20h-3a1.5 1.5 0 0 0 0 3h3v6h-3a1.5 1.5 0 0 0 0 3h3v6h-3a1.5 1.5 0 0 0 0 3h3v6h-3a1.5 1.5 0 0 0 0 3h3v6h-3a1.5 1.5 0 0 0 0 3h3v6h-3a1.5 1.5 0 0 0 0 3h3v3H74zM15.5 74H20v3a1.5 1.5 0 0 0 3 0v-3h6v3a1.5 1.5 0 0 0 3 0v-3h6v3a1.5 1.5 0 0 0 3 0v-3h6v3a1.5 1.5 0 0 0 3 0v-3h6v3a1.5 1.5 0 0 0 3 0v-3h6v3a1.5 1.5 0 0 0 3 0v-3h3v10.5H15.5zm69 10.5H74V74h10.5z" class="cls-1"></path></svg> 