<?xml version="1.0" encoding="UTF-8"?> <svg xmlns="http://www.w3.org/2000/svg" id="Livello_1" data-name="Livello 1" width="100px" height="100px" viewBox="0 0 100 100"><defs><style>.cls-1{fill:#eee}</style></defs><path d="M50 17.1a19.3 19.3 0 1 0 19.3 19.3A19.3 19.3 0 0 0 50 17zm0 35.3a16 16 0 1 1 16-16 16 16 0 0 1-16 16z" class="cls-1"></path><path d="M75.7 36.4a9.5 9.5 0 0 1 .9-3.2c.7-1.8 1.5-3.8.9-5.8s-2.6-3.2-4.2-4.2a10 10 0 0 1-2.5-2 9.2 9.2 0 0 1-1.1-3c-.5-1.8-1-4-2.7-5.2a6.5 6.5 0 0 0-4-1l-1.8.1a10.6 10.6 0 0 1-3.3-.1 9.7 9.7 0 0 1-2.5-1.8C53.9 9 52.2 7.5 50 7.5s-3.9 1.4-5.4 2.7a9.5 9.5 0 0 1-2.5 1.8 10.7 10.7 0 0 1-3.3.1H37a6.5 6.5 0 0 0-3.9.9c-1.7 1.2-2.2 3.4-2.7 5.3a9.7 9.7 0 0 1-1 3 9.5 9.5 0 0 1-2.6 1.9c-1.6 1-3.5 2.2-4.2 4.2s.2 4 .9 5.8a9.6 9.6 0 0 1 1 3.1 9.5 9.5 0 0 1-1 3.2c-.7 1.8-1.5 3.8-.9 5.7s2.6 3.2 4.2 4.3a9.8 9.8 0 0 1 2.5 1.9 9.3 9.3 0 0 1 1.1 3c.5 1.9 1 4 2.7 5.3a3.8 3.8 0 0 0 .7.4v30.8a1.6 1.6 0 0 0 1 1.4 1.6 1.6 0 0 0 1.6-.1l13.5-10.5 13.4 10.5a1.6 1.6 0 0 0 1 .3 1.7 1.7 0 0 0 .7-.2 1.6 1.6 0 0 0 1-1.4V60.3a5 5 0 0 0 1-.6c1.8-1.2 2.3-3.4 2.8-5.2a9.8 9.8 0 0 1 1-3 9.5 9.5 0 0 1 2.6-2c1.6-1 3.5-2.2 4.2-4.2s-.2-4-.9-5.7a9.5 9.5 0 0 1-1-3.2zm-24.9 42a1.6 1.6 0 0 0-2 0L37 87.6V60.7h1.9a10.6 10.6 0 0 1 3.2 0 9.4 9.4 0 0 1 2.6 1.8c1.5 1.3 3.2 2.7 5.3 2.7s4-1.4 5.4-2.7a9.5 9.5 0 0 1 2.6-1.7 10.6 10.6 0 0 1 3.3-.1h1.4v27zm22.8-37.7c.5 1.4 1 2.7.8 3.6s-1.6 1.7-2.8 2.5a11.5 11.5 0 0 0-3.4 2.8 11.7 11.7 0 0 0-1.6 4.1c-.4 1.4-.7 2.9-1.5 3.4a3.5 3.5 0 0 1-2 .5l-1.7-.1-2-.1a7.7 7.7 0 0 0-2.4.4 11.5 11.5 0 0 0-3.7 2.3c-1.1 1-2.3 2-3.3 2s-2.2-1-3.3-2a11.5 11.5 0 0 0-3.6-2.3 8.2 8.2 0 0 0-2.6-.4h-1.9l-1.7.2a3.4 3.4 0 0 1-2-.5c-.8-.5-1.1-2-1.5-3.4a11.7 11.7 0 0 0-1.6-4.1 11.4 11.4 0 0 0-3.4-2.8c-1.2-.8-2.5-1.6-2.8-2.5s.3-2.2.8-3.5a11.9 11.9 0 0 0 1.1-4.4 12 12 0 0 0-1.1-4.4c-.5-1.3-1-2.7-.8-3.5s1.6-1.8 2.8-2.6a11.7 11.7 0 0 0 3.4-2.7 11.6 11.6 0 0 0 1.6-4.2c.4-1.4.8-2.9 1.5-3.4a3.3 3.3 0 0 1 2-.5l1.7.1 2 .1A7.8 7.8 0 0 0 43 15a11.4 11.4 0 0 0 3.6-2.4c1.1-1 2.3-2 3.3-2s2.2 1 3.3 2A11.2 11.2 0 0 0 57 15a8.1 8.1 0 0 0 2.5.3h2l1.6-.1a3.3 3.3 0 0 1 2 .4c.8.6 1.2 2 1.5 3.4a11.7 11.7 0 0 0 1.6 4.2 11.5 11.5 0 0 0 3.4 2.8c1.3.7 2.6 1.5 2.9 2.4s-.3 2.3-.8 3.6a12.1 12.1 0 0 0-1.2 4.4 11.8 11.8 0 0 0 1.1 4.4z" class="cls-1"></path><path d="M53.6 31.3l-2-6.3a1.6 1.6 0 0 0-3 0l-2 6.3h-6.7a1.6 1.6 0 0 0-1.6 1.1 1.6 1.6 0 0 0 .6 1.8l5.4 3.9-2 6.2a1.6 1.6 0 0 0 2.4 1.8l5.3-3.9 5.3 4a1.6 1.6 0 0 0 2 0 1.6 1.6 0 0 0 .5-1.9l-2-6.2 5.4-4a1.6 1.6 0 0 0-1-2.8zm-1.2 6.6l.8 2.7L51 39a1.7 1.7 0 0 0-1-.3 1.6 1.6 0 0 0-1 .3l-2.2 1.6.9-2.7a1.6 1.6 0 0 0-.6-1.8l-2.3-1.6h2.8a1.6 1.6 0 0 0 1.5-1.1l.9-2.7.9 2.7a1.6 1.6 0 0 0 1.5 1.1h2.8L53 36.1a1.6 1.6 0 0 0-.6 1.8z" class="cls-1"></path></svg> 